<svg xmlns="http://www.w3.org/2000/svg" viewBox="0 0 12 17"><g fill="none"><g clip-path="url(#nimiq-logos-gmaps-pin-wwl9yq)"><path fill="#34A853" d="M8.691 12.593q-.746.941-1.355 1.976c-.345.647-.49 1.086-.742 1.867-.155.43-.295.56-.596.56-.328 0-.477-.22-.592-.558-.239-.737-.426-1.3-.722-1.83-.58-1.027-1.3-1.939-2.009-2.815-.191-.248-1.43-1.693-1.989-2.833 0 0-.686-1.252-.686-3 0-1.636.677-2.77.677-2.77l1.947.515 1.183 3.078.292.424.059.077.078.096.136.154.195.193 1.053.848 2.633 1.502z"/><path fill="#FBBC04" d="M11.409 8.75c-.643 1.45-1.882 2.725-2.72 3.844L4.234 7.381s.628.811 1.766.811c1.267 0 2.291-1 2.291-2.261 0-.865-.526-1.46-.526-1.46l3.023.8z"/><path fill="#4285F4" d="M4.186.268C2.706.74 1.44 1.728.675 3.188l3.559 4.19s-.527-.605-.527-1.464c0-1.29 1.1-2.255 2.288-2.255 1.124 0 1.77.81 1.77.81v-2.64z"/><path fill="#1A73E8" d="M10.593 2.12A5.97 5.97 0 006.013 0c-1.04 0-1.824.27-1.824.27l3.579 4.2h2.535z"/><path fill="#EA4335" d="M11.409 8.75S12 7.606 12 5.948c0-1.566-.616-2.935-1.407-3.828L7.766 4.47z"/></g><defs><clipPath id="nimiq-logos-gmaps-pin-wwl9yq"><path fill="#fff" d="M12 0H0v17h12z"/></clipPath></defs></g></svg>