<svg xmlns="http://www.w3.org/2000/svg" viewBox="0 0 27 25"><g fill="none"><path fill="url(#nimiq-logos-fm-mono-lxrtcf)" d="m26.7 11.497-5.624-9.99A2.24 2.24 0 0019.124.354H7.874c-.804 0-1.546.438-1.947 1.153l-5.625 9.99a2.35 2.35 0 000 2.305l5.625 9.99a2.24 2.24 0 001.947 1.152h11.25c.804 0 1.546-.438 1.947-1.153l5.625-9.99a2.35 2.35 0 00.005-2.305"/><path fill="url(#nimiq-logos-fm-mono-lxrtcf)" d="M6.048 16.324V8.418h5.371v1.356H7.797v1.929h3.364v1.345H7.797v3.274zm6.493 0V8.418h1.537l2.747 6.167h-.36l2.748-6.167h1.525v7.904h-1.592v-5.37h.448l-2.455 5.37h-1.01l-2.466-5.37h.47v5.37z"/><defs><radialGradient id="nimiq-logos-fm-mono-lxrtcf" cx="0" cy="0" r="1" gradientTransform="matrix(-27.0001 0 0 -24.5897 27 24.944)" gradientUnits="userSpaceOnUse"><stop stop-color="currentColor"/><stop offset="1" stop-color="currentColor"/></radialGradient><radialGradient id="nimiq-logos-fm-mono-lxrtcf" cx="0" cy="0" r="1" gradientTransform="matrix(-10.1948 5.43109 -10.1682 -5.54314 18.919 9.647)" gradientUnits="userSpaceOnUse"><stop offset=".188" stop-color="currentColor"/><stop offset=".613" stop-color="currentColor" stop-opacity=".857"/><stop offset="1" stop-color="currentColor" stop-opacity=".6"/></radialGradient></defs></g></svg>