<svg xmlns="http://www.w3.org/2000/svg" viewBox="0 0 21 18"><g fill="none"><g clip-path="url(#nimiq-logos-cryptocity-xwzokk)"><path fill="#FC8702" d="M10.719.014h5.038a3.25 3.25 0 01-.966 2.311 3.3 3.3 0 01-1.072.707 3.4 3.4 0 01-1.266.248H7.427A3.24 3.24 0 019.454.262c.4-.163.83-.248 1.264-.248"/><path fill="#D94432" d="M18.489 4.694C18.502 4.722 21 8.997 21 8.997a3.32 3.32 0 01-3.67-.232 3.3 3.3 0 01-.848-.963c-.015-.028-2.512-4.303-2.512-4.303a3.33 3.33 0 012.51-.33 3.3 3.3 0 012.009 1.525"/><path fill="#21BCA5" d="M4.52 10.191c.013.029 2.512 4.303 2.512 4.303a3.32 3.32 0 01-2.517.334 3.3 3.3 0 01-1.159-.566 3.2 3.2 0 01-.844-.963C2.5 13.272 0 8.997 0 8.997a3.37 3.37 0 012.508-.318A3.32 3.32 0 014.52 10.19"/><path fill="#E9B213" d="M6.458 4.467c-.013.028-2.51 4.303-2.51 4.303a3.3 3.3 0 01-.972-.84 3.23 3.23 0 01-.238-3.628C2.75 4.276 5.249 0 5.249 0c.378.214.709.5.973.84a3.225 3.225 0 01.236 3.627"/><path fill="#1F2348" d="M18.268 13.687c-.014.027-2.513 4.303-2.513 4.303a3.3 3.3 0 01-.972-.843 3.24 3.24 0 01-.236-3.625c.013-.027 2.511-4.303 2.511-4.303a3.3 3.3 0 011.314 1.386 3.24 3.24 0 01-.104 3.082"/><path fill="#0582CA" d="M8.548 14.734h5.037a3.25 3.25 0 01-2.037 3.018A3.4 3.4 0 0110.28 18H5.257c0-.864.347-1.693.963-2.305a3.3 3.3 0 011.065-.708c.4-.165.829-.252 1.262-.254z"/></g><defs><clipPath id="nimiq-logos-cryptocity-xwzokk"><path fill="#fff" d="M0 0h21v18H0z"/></clipPath></defs></g></svg>