<svg xmlns="http://www.w3.org/2000/svg" viewBox="0 0 139 18"><g fill="none"><g clip-path="url(#nimiq-logos-crypto-map-white-horizontal-un8xpp)"><path fill="url(#nimiq-logos-crypto-map-white-horizontal-un8xpp)" fill-rule="evenodd" d="M15.125 16.63a.3.3 0 01-.01-.086l.345-6.692-1.045 1.012a.57.57 0 01-.409.179.6.6 0 01-.416-.162.55.55 0 01-.168-.404.54.54 0 01.184-.396l1.415-1.371-1.415-1.371a.546.546 0 01.007-.778.58.58 0 01.802-.007l1.157 1.122L15.968 0l-5.082 1.137a.9.9 0 01-.401-.004L5.829.005l.208 8.05h1.142a.58.58 0 01.397.167.546.546 0 010 .776.58.58 0 01-.397.166H6.065l.19 7.387a.3.3 0 01-.01.08l4.214 1.113a.9.9 0 00.452 0zM5.496 9.314l.187 7.25q0 .03.009.061l-3.856.934a.88.88 0 01-.718-.138.84.84 0 01-.246-.275.8.8 0 01-.1-.35L.48 11.289a.6.6 0 00.132-.035l1.341-.533a.56.56 0 00.3-.3.54.54 0 00-.001-.418.56.56 0 00-.302-.299.6.6 0 00-.43-.01l-1.101.438L0 2.244a.8.8 0 01.154-.52.86.86 0 01.45-.317L5.257.02l.209 8.107L4.2 8.63a.56.56 0 00-.31.298.54.54 0 00-.002.425.56.56 0 00.308.3c.14.058.298.058.438.003zm10.19 7.257.355-6.873 1.203 1.167a.57.57 0 00.405.162.6.6 0 00.404-.162.56.56 0 00.168-.393.54.54 0 00-.168-.391L16.638 8.71l1.415-1.372a.56.56 0 00.184-.396.54.54 0 00-.168-.404.57.57 0 00-.416-.162.6.6 0 00-.409.178l-1.096 1.063.392-7.59 4.244 1.37c.178.058.332.17.437.32a.8.8 0 01.148.512l-.77 14.567a.84.84 0 01-.346.625.87.87 0 01-.719.138l-3.856-.934a.3.3 0 00.008-.054M10.02 8.055a.58.58 0 00-.397.167.546.546 0 000 .776.58.58 0 00.397.166h1.42a.58.58 0 00.396-.166.546.546 0 000-.776.58.58 0 00-.396-.167z" clip-rule="evenodd"/><path fill="#fff" d="M35.189 14.647q-1.616 0-2.805-.65a4.53 4.53 0 01-1.83-1.877q-.625-1.212-.625-2.867 0-1.64.625-2.837a4.44 4.44 0 011.83-1.862q1.189-.665 2.805-.665 1.097 0 2.058.325.975.31 1.616.916l-.64 1.39q-.747-.577-1.464-.828a4.4 4.4 0 00-1.54-.266q-1.57 0-2.439.99-.854.975-.854 2.837t.854 2.867q.869.99 2.44.99.822 0 1.54-.251.716-.266 1.463-.842l.64 1.389q-.64.605-1.616.93-.96.31-2.058.311m6.564-.118V4.007h4.65q1.845 0 2.805.783.96.782.96 2.246 0 1.389-.99 2.217-.99.813-2.76.813l1.22-.237q.564 0 1.006.325t.701 1.005l1.342 3.37h-2.073l-1.373-3.503q-.213-.517-.61-.694-.381-.178-.96-.178H43.69v4.374zm1.921-5.852h2.455q1.127 0 1.646-.4.519-.398.519-1.196 0-.812-.52-1.197-.517-.384-1.645-.384h-2.455zm12.369 5.852V9.8l.412 1.153-4.818-6.946h2.241l3.43 5.172h-.564l3.43-5.172h2.241l-4.802 6.946.397-1.153v4.729zm8.017 0V4.007h4.711q1.769 0 2.729.828.976.813.976 2.231 0 1.404-.991 2.232-.975.827-2.714.827h-2.744v4.404zm1.967-5.867h2.516q1.035 0 1.54-.414.517-.414.517-1.167 0-.768-.503-1.167-.502-.414-1.554-.414h-2.516zm11.547 5.867V5.574h-3.537V4.007h9.056v1.567h-3.537v8.955zm12.122.118q-1.585 0-2.744-.65a4.4 4.4 0 01-1.784-1.862q-.624-1.212-.625-2.867 0-1.67.625-2.867a4.4 4.4 0 011.784-1.861q1.159-.65 2.744-.65 1.6 0 2.76.65a4.4 4.4 0 011.783 1.86q.625 1.197.625 2.852 0 1.67-.64 2.882a4.4 4.4 0 01-1.784 1.861q-1.143.65-2.744.65m0-1.507q1.494 0 2.348-.99.854-1.005.854-2.897 0-1.89-.854-2.866-.854-.99-2.348-.99-1.479 0-2.332.99-.854.975-.854 2.866t.854 2.896q.853.99 2.332.99m13.53 1.389V4.007h1.571l4.101 9.059h-.747l4.07-9.059h1.57V14.53h-1.753l-.015-7.788.518.118-3.384 7.67h-1.296L104.4 6.86l.549-.118.015 7.788zm14.797 0h-1.981l4.908-10.522h1.601l4.909 10.522h-1.951l-3.995-9.044h.534zm.183-2.468.747-1.478h5.534l.717 1.478zm11.495 2.468V4.007h4.711q1.769 0 2.729.828.976.813.976 2.231 0 1.404-.991 2.232-.976.827-2.714.827h-2.744v4.404zm1.967-5.867h2.515q1.038 0 1.54-.414.519-.414.519-1.167 0-.768-.503-1.167-.504-.414-1.556-.414h-2.515z"/></g><defs><radialGradient id="nimiq-logos-crypto-map-white-horizontal-un8xpp" cx="0" cy="0" r="1" gradientTransform="matrix(-21.3704 0 0 -17.774 21.37 17.774)" gradientUnits="userSpaceOnUse"><stop stop-color="#EC991C"/><stop offset="1" stop-color="#E9B213"/></radialGradient><clipPath id="nimiq-logos-crypto-map-white-horizontal-un8xpp"><path fill="#fff" d="M0 0h138.857v18H0z"/></clipPath></defs></g></svg>