<svg xmlns="http://www.w3.org/2000/svg" viewBox="0 0 32 11"><g fill="none"><g clip-path="url(#nimiq-logos-nimiq-pay-horizontal-p3i9uc)"><path fill="url(#nimiq-logos-nimiq-pay-horizontal-p3i9uc)" d="M11.76 4.805 9.284.497A.99.99 0 008.423 0H3.469a.99.99 0 00-.858.497L.133 4.805a1 1 0 000 .994l2.477 4.308a.99.99 0 00.858.497h4.956a.99.99 0 00.857-.497l2.478-4.308a1 1 0 00.002-.994"/><path fill="#1F2348" d="M16.41 8.423V2.136h2.79q1.035 0 1.58.499.543.499.543 1.373 0 .865-.544 1.374-.544.508-1.578.508H17.56v2.533zm1.15-3.442h1.507q.57 0 .856-.25.285-.259.285-.723t-.285-.713q-.285-.259-.856-.259H17.56zm6.143 3.531q-.588 0-1.034-.276a1.9 1.9 0 01-.696-.812q-.25-.526-.25-1.257 0-.732.25-1.249.25-.525.696-.803.446-.285 1.034-.285.57 0 .999.285.437.277.58.75h-.098l.098-.946h1.07l-.054.562a9 9 0 00-.017.562v3.38h-1.106l-.01-.928h.108q-.143.464-.58.74a1.8 1.8 0 01-.99.277m.312-.856q.526 0 .848-.366.32-.375.32-1.123 0-.75-.32-1.115-.322-.366-.848-.366t-.847.366-.321 1.115.312 1.123q.322.366.856.366m3.61 2.791-.259-.883q.42-.088.705-.205t.473-.303a1.5 1.5 0 00.312-.481l.223-.527-.027.437L27.09 3.92h1.186l1.41 3.514h-.26l1.419-3.514h1.123l-2.05 4.754a3.6 3.6 0 01-.447.793q-.24.321-.517.509-.276.196-.606.303t-.723.17"/></g><defs><radialGradient id="nimiq-logos-nimiq-pay-horizontal-p3i9uc" cx="0" cy="0" r="1" gradientTransform="matrix(11.897 0 0 11.9321 8.947 10.466)" gradientUnits="userSpaceOnUse"><stop stop-color="#EC991C"/><stop offset="1" stop-color="#E9B213"/></radialGradient><clipPath id="nimiq-logos-nimiq-pay-horizontal-p3i9uc"><path fill="#fff" d="M0 0h32v10.604H0z"/></clipPath></defs></g></svg>