<svg xmlns="http://www.w3.org/2000/svg" viewBox="0 0 167 18"><g fill="none"><g clip-path="url(#nimiq-logos-cpl-horizontal-a30bjq)"><path fill="#1F2348" d="M25.594 13.07q-1.263-.001-2.17-.506a3.5 3.5 0 01-1.377-1.446q-.483-.942-.483-2.216t.483-2.204 1.377-1.435q.907-.517 2.17-.517.849 0 1.527.241.69.24 1.182.712l-.482 1.17q-.54-.436-1.045-.619a3.1 3.1 0 00-1.136-.195q-1.229 0-1.883.746-.642.735-.643 2.1 0 1.368.643 2.113.654.747 1.883.747.642 0 1.136-.184.505-.195 1.045-.643l.482 1.17q-.493.46-1.182.713-.677.252-1.527.252m5.023-.115V4.861h3.536q1.33 0 2.055.631.735.632.734 1.757 0 .746-.333 1.274a2.1 2.1 0 01-.93.815q-.608.276-1.435.276l.161-.218h.39q.483 0 .861.252.38.253.62.77l1.183 2.536h-1.63l-1.194-2.629q-.16-.4-.494-.528a2.1 2.1 0 00-.78-.126h-1.264v3.283zm1.48-4.374h1.814q.78 0 1.183-.321.413-.333.413-.964 0-.632-.413-.953-.402-.322-1.183-.322h-1.814zm9.394 4.374V9.132l.31.883-3.478-5.154h1.71l2.388 3.674H42.1l2.388-3.674h1.653l-3.467 5.155.298-.884v3.822zm6.522 0V4.861h3.594q1.332 0 2.032.643t.7 1.768q0 1.113-.7 1.768-.701.654-2.032.654h-2.113v3.26zm1.481-4.43h1.94q.735 0 1.103-.322.367-.333.367-.93t-.367-.919q-.368-.333-1.102-.333h-1.94zm8.799 4.43V6.078h-2.675V4.86h6.83v1.217h-2.675v6.876zm5.374-4.052q0-1.274.459-2.204a3.4 3.4 0 011.343-1.435q.872-.517 2.078-.517 1.194 0 2.066.517.873.505 1.343 1.435.483.93.483 2.192 0 1.274-.483 2.216a3.46 3.46 0 01-1.343 1.447q-.873.516-2.066.516-1.206 0-2.078-.516a3.5 3.5 0 01-1.332-1.447q-.47-.94-.47-2.204m1.55 0q0 1.366.585 2.135.585.77 1.745.77 1.125 0 1.733-.77.609-.769.609-2.135 0-1.377-.609-2.135-.596-.759-1.733-.758-1.16 0-1.745.758t-.586 2.135m8.68 4.052V4.861h3.593q1.332 0 2.032.643t.7 1.768q0 1.113-.7 1.768-.7.654-2.032.654h-2.112v3.26zm1.48-4.43h1.94q.735 0 1.103-.322.367-.333.367-.93t-.367-.919q-.367-.333-1.102-.333h-1.94zm5.358 4.43 3.663-8.093h1.24l3.707 8.093h-1.503l-.988-2.273.597.402h-4.856l.62-.402-.987 2.273zm4.271-6.509-1.619 3.835-.298-.356h3.857l-.24.356-1.654-3.835zm7.388 6.509V9.132l.31.883-3.479-5.154h1.71l2.389 3.674H93l2.39-3.675h1.653l-3.467 5.155.299-.884v3.822zm6.533 0V4.861h1.297l2.974 6.693h-.356l2.973-6.693h1.286v8.093h-1.343V6.95h.413l-2.721 6.004h-.884l-2.72-6.004h.424v6.004zm10.907 0V4.861h5.453v1.16h-4.03v2.238h3.766V9.43h-3.766v2.354h4.03v1.17zm7.757 0V4.861h1.113l4.696 6.073h-.299V4.86h1.378v8.093h-1.114L118.68 6.88h.287v6.073zm11.501 0V6.078h-2.675V4.86h6.83v1.217h-2.674v6.876zm5.115 0V11.36h1.608v1.595zm4.053 0V4.861h1.481v6.842h3.811v1.251zm7.353 0V4.861h1.481v8.093zm4.191 0V4.861h1.114l4.695 6.073h-.298V4.86h1.377v8.093h-1.113l-4.684-6.073h.287v6.073zm9.596 0V4.861h1.481v3.582h.022l3.525-3.582h1.791l-4.225 4.213.012-.643 4.488 4.523h-1.848l-3.743-3.742h-.022v3.742z"/><mask id="nimiq-logos-cpl-horizontal-a30bjq" width="15" height="18" x="0" y="0" maskUnits="userSpaceOnUse" style="mask-type:luminance"><path fill="#fff" d="M14.5.531H0v17h14.5z"/></mask><g mask="url(#nimiq-logos-cpl-horizontal-a30bjq)"><path fill="#1F2348" d="M14.419 5.958 13.27 1.744C13.03.87 12.122.356 11.235.583l-4.27 1.13A2.6 2.6 0 005.4 2.895L.232 11.714a1.63 1.63 0 00.605 2.24l5.888 3.351c.793.452 1.816.185 2.265-.596l5.168-8.819a2.5 2.5 0 00.26-1.932m-4.103 4.101L8.99 12.33a.56.56 0 01-.46.268H5.87a.53.53 0 01-.46-.268l-1.336-2.27a.52.52 0 010-.524L5.41 7.263a.56.56 0 01.459-.267h2.662c.188 0 .365.103.46.267l1.325 2.272a.52.52 0 010 .524m1.054-5.982a1.01 1.01 0 01-1.231-.699c-.147-.524.177-1.069.71-1.213a1.01 1.01 0 011.231.7c.146.523-.177 1.068-.71 1.212"/></g></g><defs><clipPath id="nimiq-logos-cpl-horizontal-a30bjq"><path fill="#fff" d="M0 0h167v18H0z"/></clipPath></defs></g></svg>