<svg xmlns="http://www.w3.org/2000/svg" viewBox="0 0 24 25"><g fill="none"><g clip-path="url(#nimiq-logos-lightning-bitcoin-outline-mono-oj2zyg)"><mask id="nimiq-logos-lightning-bitcoin-outline-mono-oj2zyg" width="24" height="25" x="0" y="0" maskUnits="userSpaceOnUse" style="mask-type:luminance"><path fill="#fff" d="M24 .868H0v24h24z"/></mask><g stroke="currentColor" stroke-width="2" mask="url(#nimiq-logos-lightning-bitcoin-outline-mono-oj2zyg)"><path stroke-linecap="round" stroke-linejoin="round" d="M7.708 19.13c5 .072 5.1-6.927.1-6.999m-.1 7-5.998-.086m5.998.086-.027 2m.127-9-4-.056m4 .056c5 .072 5.1-6.928.1-6.999l-6-.085m5.998.086.03-2M3.68 21.073l.255-17.999"/><path d="m14.538 19.07.004-.003m1.106.876.001-.003m-3.06-5.432-.008.007c-.169.149-.39.372-.504.675a1.15 1.15 0 00-.05.66c.06.263.204.458.35.586.247.22.528.273.615.288a2 2 0 00.214.022h.035l.001-1v1h1.777l-1.126 2.232c-.106.204-.202.45-.223.72-.02.263.027.717.423 1.042.395.323.847.28 1.098.209.262-.075.483-.219.654-.364l.008-.007.008-.006 5.924-5.22c.164-.137.388-.35.508-.645a1.1 1.1 0 00-.317-1.28 1.3 1.3 0 00-.601-.265 2 2 0 00-.205-.02h-.033l-.001 1v-1h-1.803l1.181-2.323c.21-.398.31-1.114-.3-1.576-.527-.4-1.137-.237-1.479-.018l-.06.038-.053.046z"/></g></g><defs><clipPath id="nimiq-logos-lightning-bitcoin-outline-mono-oj2zyg"><path fill="#fff" d="M0 0h24v25H0z"/></clipPath></defs></g></svg>