<svg xmlns="http://www.w3.org/2000/svg" viewBox="0 0 24 24"><defs><path id="nimiq-duotone-fiat-currencies-vryyoa" fill="#fff" d="M0 0h24v24H0z"/></defs><g fill="none"><g clip-path="url(#nimiq-duotone-fiat-currencies-vryyoa)"><mask id="nimiq-duotone-fiat-currencies-vryyoa" width="24" height="24" x="0" y="0" maskUnits="userSpaceOnUse" style="mask-type:luminance"><use href="#nimiq-duotone-fiat-currencies-vryyoa"/></mask><g mask="url(#nimiq-duotone-fiat-currencies-vryyoa)"><path fill="currentColor" fill-rule="evenodd" d="M2.118 10.242a7.64 7.64 0 013.911-2.267 7.5 7.5 0 014.483.361 5.79 5.79 0 00-.576-6.044A5.56 5.56 0 007.434.436 5.44 5.44 0 004.35.235a5.5 5.5 0 00-2.712 1.517A5.7 5.7 0 00.14 4.516a5.8 5.8 0 00.178 3.156 5.7 5.7 0 001.8 2.57" clip-rule="evenodd" opacity=".4"/><path fill="currentColor" fill-opacity=".6" fill-rule="evenodd" d="M15.348 14.745a7.95 7.95 0 00-2.203-4.643 7.64 7.64 0 00-4.54-2.253 7.46 7.46 0 011.03-4.226A7.2 7.2 0 0112.829.741a7 7 0 014.228-.52 7.1 7.1 0 013.77 2.026 7.4 7.4 0 011.98 3.855 7.5 7.5 0 01-.509 4.324 7.3 7.3 0 01-2.817 3.265 7.04 7.04 0 01-4.132 1.054" clip-rule="evenodd"/><mask id="nimiq-duotone-fiat-currencies-vryyoa" width="17" height="17" x="7" y="-1" maskUnits="userSpaceOnUse" style="mask-type:luminance"><path fill="#fff" d="M7.52-1H24v16.855H7.52z"/><path fill="#000" fill-rule="evenodd" d="M15.348 14.745a7.95 7.95 0 00-2.203-4.643 7.64 7.64 0 00-4.54-2.253 7.46 7.46 0 011.03-4.226A7.2 7.2 0 0112.829.741a7 7 0 014.228-.52 7.1 7.1 0 013.77 2.026 7.4 7.4 0 011.98 3.855 7.5 7.5 0 01-.509 4.324 7.3 7.3 0 01-2.817 3.265 7.04 7.04 0 01-4.132 1.054" clip-rule="evenodd"/></mask><g mask="url(#nimiq-duotone-fiat-currencies-vryyoa)"><path fill="#fff" d="m15.348 14.745-1.068.128c.03.257.148.494.332.67.184.178.423.283.675.297l.06-1.099zM8.605 7.849l-1.074.062c.015.258.118.502.292.69s.406.306.657.336zm.993-4.163.924.561-.924-.557zm6.821 10.93a9.06 9.06 0 00-2.51-5.291 8.7 8.7 0 00-5.175-2.568l-.25 2.184c3.034.366 5.445 2.828 5.804 5.932zm-6.735-6.83a6.34 6.34 0 01.842-3.539L8.677 3.126a8.6 8.6 0 00-1.14 4.785zm.842-3.539a6.14 6.14 0 012.708-2.484l-.895-2a8.3 8.3 0 00-3.662 3.363zm2.708-2.484a5.97 5.97 0 013.612-.466l.38-2.161a8.07 8.07 0 00-4.884.622zm3.612-.466A6.05 6.05 0 0120.07 3.02l1.519-1.55a8.2 8.2 0 00-4.364-2.334zM20.07 3.02a6.3 6.3 0 011.684 3.297l2.117-.388a8.5 8.5 0 00-2.282-4.46l-1.52 1.554zm1.684 3.297a6.36 6.36 0 01-.448 3.697l1.952.913a8.6 8.6 0 00.613-4.998l-2.114.392zm-.448 3.697a6.2 6.2 0 01-2.436 2.77l1.1 1.891a8.37 8.37 0 003.288-3.748l-1.952-.916zm-2.436 2.77a6 6 0 01-3.458.861l-.121 2.199a8.1 8.1 0 004.679-1.173l-1.097-1.887z"/></g><path stroke="#fff" stroke-linecap="round" stroke-linejoin="round" stroke-width="1.2" d="m17.806 10.762-.294.12c-.329.138-.68.209-1.035.21a2.73 2.73 0 01-1.951-.827 2.86 2.86 0 01-.808-1.995V6.376c0-1.645 1.304-2.979 2.913-2.979.419 0 .834.092 1.214.271l.172.08M12.46 6.512h3.583m-3.579 1.833h3.583"/><path stroke="currentColor" stroke-linecap="round" stroke-linejoin="round" stroke-width="1.2" d="M9.132 12.374H7.595a1.3 1.3 0 00-.949.432 1.45 1.45 0 00-.38 1.012c0 .264.065.527.197.755.13.227.316.413.538.534l1.397.763c.223.125.41.31.537.535.13.227.197.49.197.754a1.48 1.48 0 01-.383 1.012 1.32 1.32 0 01-.946.432H6.266m1.792-6.229v-1.1m0 8.428v-1.099"/><path stroke="currentColor" stroke-linecap="round" stroke-linejoin="round" stroke-width="1.2" d="M7.7 23c1.9 0 3.722-.772 5.066-2.146a7.4 7.4 0 002.098-5.182 7.4 7.4 0 00-2.098-5.182 7.1 7.1 0 00-5.067-2.146c-1.9 0-3.723.772-5.066 2.146a7.4 7.4 0 00-2.099 5.182c0 1.943.755 3.807 2.099 5.182A7.1 7.1 0 007.699 23"/></g></g><defs><clipPath id="nimiq-duotone-fiat-currencies-vryyoa"><use href="#nimiq-duotone-fiat-currencies-vryyoa"/></clipPath></defs></g></svg>