<svg xmlns="http://www.w3.org/2000/svg" viewBox="0 0 24 24"><g fill="none"><g clip-path="url(#nimiq-duotone-speedmeter-z32ei6)"><path fill="currentColor" d="M13.472 13.472v-.01a1.95 1.95 0 01-2.743-.048 1.946 1.946 0 01-.01-2.695c.446-.451 3.105-2.156 5.213-3.48.668-.42 1.427.34 1.006 1.008-1.326 2.106-3.034 4.76-3.485 5.206z" opacity=".4"/><path stroke="currentColor" stroke-linecap="round" stroke-linejoin="round" stroke-width="1.13" d="M3.861 12.102h1.455m.959-5.827 1.027 1.028m4.8-3.442v1.455m8.24 6.786h-1.454m1.58 7.368-.01-.01a14.27 14.27 0 00-8.376-2.52 14.33 14.33 0 00-8.376 2.51" opacity=".4"/><path stroke="currentColor" stroke-linecap="round" stroke-linejoin="round" stroke-width="1.13" d="M12 23.438c6.317 0 11.438-5.121 11.438-11.438S18.316.563 12 .563.563 5.683.563 12 5.683 23.438 12 23.438"/></g><defs><clipPath id="nimiq-duotone-speedmeter-z32ei6"><path fill="#fff" d="M0 0h24v24H0z"/></clipPath></defs></g></svg>