<svg xmlns="http://www.w3.org/2000/svg" viewBox="0 0 24 24"><g fill="none"><g clip-path="url(#nimiq-duotone-btc-invoice-fpngsf)"><mask id="nimiq-duotone-btc-invoice-fpngsf" width="24" height="24" x="0" y="0" maskUnits="userSpaceOnUse" style="mask-type:luminance"><path fill="#fff" d="M0 24h24V0H0z"/></mask><g mask="url(#nimiq-duotone-btc-invoice-fpngsf)"><g fill="currentColor" opacity=".4"><path d="M16.875 23.374v-5.168a1.31 1.31 0 011.312-1.331h5.187"/><path d="M16.875 23.374v-5.168a1.31 1.31 0 011.312-1.331h5.187l-.124 2.438-1.313 2.25-2.25 1.5z"/></g><path stroke="currentColor" stroke-linecap="round" stroke-linejoin="round" stroke-width="1.2" d="M21.386.563h-.011a2.085 2.085 0 012.063 2.024v14.926c0 3.266-2.663 5.928-5.944 5.928H2.55a1.995 1.995 0 01-1.987-1.998V2.569A1.984 1.984 0 012.539.563z"/><path stroke="currentColor" stroke-linecap="round" stroke-linejoin="round" stroke-width="1.2" d="M9.938 7.751A2.167 2.167 0 017.77 9.92H5.063V5.584H7.77A2.167 2.167 0 019.938 7.75"/><path stroke="currentColor" stroke-linecap="round" stroke-linejoin="round" stroke-width="1.2" d="M6.938 4.125V5.25m0 9v1.125m6.937-2.437H19.5m-5.625-3H19.5m-5.625-3H19.5m-9.562 5.145A2.17 2.17 0 017.77 14.25H5.063V9.919H7.77a2.167 2.167 0 012.168 2.163"/></g></g><defs><clipPath id="nimiq-duotone-btc-invoice-fpngsf"><path fill="#fff" d="M0 0h24v24H0z"/></clipPath></defs></g></svg>