<svg xmlns="http://www.w3.org/2000/svg" viewBox="0 0 24 24"><defs><path id="nimiq-duotone-crypto-currencies-btc-eth-t2iv2z" fill="#fff" d="M0 0h24v24H0z"/><path id="nimiq-duotone-crypto-currencies-btc-eth-t2iv2z" d="m16.069 14.989-1.118.131a1.125 1.125 0 001.054.99l.064-1.125zM9.01 7.93l-1.125.064a1.125 1.125 0 00.994 1.05zm1.039-4.26.967.574-.967-.57zm7.14 11.187a9.19 9.19 0 00-8.044-8.044l-.262 2.235a6.95 6.95 0 016.075 6.071zm-7.05-6.99a6.4 6.4 0 01.881-3.623L9.086 3.098a8.63 8.63 0 00-1.192 4.897zm.881-3.623a6.4 6.4 0 012.835-2.542L12.92-.345a8.63 8.63 0 00-3.833 3.443zm2.835-2.542a6.4 6.4 0 013.78-.477l.398-2.212a8.63 8.63 0 00-5.111.637zm3.78-.477a6.4 6.4 0 013.375 1.763l1.59-1.586a8.63 8.63 0 00-4.567-2.39zm3.375 1.763a6.37 6.37 0 011.763 3.375l2.216-.398A8.63 8.63 0 0022.6 1.402l-1.59 1.59zm1.763 3.375c.233 1.28.07 2.6-.469 3.784l2.044.933c.73-1.6.954-3.384.641-5.115l-2.212.402zm-.469 3.784a6.4 6.4 0 01-2.55 2.835l1.151 1.935a8.6 8.6 0 003.443-3.837l-2.044-.937zm-2.55 2.835a6.4 6.4 0 01-3.619.88l-.127 2.25a8.63 8.63 0 004.897-1.2l-1.147-1.93z"/></defs><g fill="none"><g clip-path="url(#nimiq-duotone-crypto-currencies-btc-eth-t2iv2z)"><mask id="nimiq-duotone-crypto-currencies-btc-eth-t2iv2z" width="24" height="24" x="0" y="0" maskUnits="userSpaceOnUse" style="mask-type:luminance"><use href="#nimiq-duotone-crypto-currencies-btc-eth-t2iv2z"/></mask><g mask="url(#nimiq-duotone-crypto-currencies-btc-eth-t2iv2z)"><path fill="currentColor" fill-opacity=".6" fill-rule="evenodd" d="M2.22 10.38a8.04 8.04 0 018.786-1.95 5.813 5.813 0 10-8.786 1.95" clip-rule="evenodd"/><path fill="currentColor" fill-opacity=".6" fill-rule="evenodd" d="M16.069 14.989A8.066 8.066 0 009.01 7.93a7.5 7.5 0 117.058 7.058" clip-rule="evenodd"/><mask id="nimiq-duotone-crypto-currencies-btc-eth-t2iv2z" width="19" height="19" x="7" y="-2" maskUnits="userSpaceOnUse" style="mask-type:luminance"><path fill="#fff" d="M7.875-1.125h17.25v17.25H7.875z"/><path fill="#000" fill-rule="evenodd" d="M16.069 14.989A8.066 8.066 0 009.01 7.93a7.5 7.5 0 117.058 7.058" clip-rule="evenodd"/></mask><g fill="#fff" mask="url(#nimiq-duotone-crypto-currencies-btc-eth-t2iv2z)"><mask id="nimiq-duotone-crypto-currencies-btc-eth-t2iv2z"><use href="#nimiq-duotone-crypto-currencies-btc-eth-t2iv2z"/></mask><use href="#nimiq-duotone-crypto-currencies-btc-eth-t2iv2z"/><path d="m21.449 1.844-.795.795.707.707.795-.795zm1.668 9.223 1.024.469.416-.91-1.024-.468zm-2.354 2.628-.574-.968-.86.51.573.968zm-9.487-9.88L9.341 2.667l-.51.86 1.935 1.148zm6.852-2.5.398-2.213-.984-.177-.398 2.213zm-2.06 13.674.117.993.884-.104v-.89zm-1.117.131-.116-.993-.995.117.118.994zm1.054.99-.056.998.998.057.056-.998zm.064-1.125h1l-1.999-.057zM9.01 7.931l.993.117.14-1.183-1.19.068zm-1.125.064-.056-.998-1.002.056.06 1.002zm.994 1.05-.115.993.991.115.117-.99zm1.17-5.374.51-.86-1.51-.895V3.67zm.967.574-.507.862 1.018-1.722zm-.967-.57h-1v.572l.492.29zm9.709 9.308.86-.511-.291-.49h-.57zm-2.569 1.874.117.994.994-.117-.118-.994zM9.146 6.815l.118-.993-.994-.118-.117.994zM8.884 9.05l-.993-.117-.117.993.993.117zm6.075 6.071-.993.117.117.993.993-.117zM10.14 7.868l.057.998 1-.057-.059-1zm.881-3.623-.86-.511zM9.086 3.098l-.86-.51zM7.894 7.995l-.999.058.058.997.997-.057zm5.962-6.292.415.91.001-.001zM12.92-.345l.909-.416-.416-.909-.909.415zm4.717 1.571-.177.984zm.398-2.212-.178.984zm-5.111.637-.415-.91-.91.415.414.91zM22.6 1.403l.707-.708zm.173 4.96-.985.178.001.002zm2.216-.397.984-.178zM21.01 2.993h-1v2.414L21.718 3.7zm1.767 3.375-.707.707.37.37.515-.094zm-3.023 6.615-.51-.861zm1.151 1.935-.86.51.512.86.859-.51zm1.399-4.774.417-.91-1.417-.65v1.56zm-6.169 3.72.058-.999-1-.057-.056 1zm-.127 2.25-.999-.057-.056.999.998.056zm4.897-1.2.512.859.858-.511-.51-.859zm-4.954-.918-1.117.13.233 1.987 1.117-.131zm-1.994 1.242c.06.496.291.956.655 1.297l1.37-1.457a.13.13 0 01-.039-.076zm.655 1.297a2.12 2.12 0 001.336.573l.112-1.996a.13.13 0 01-.078-.034zm2.39-.368.064-1.125-1.997-.114-.063 1.125zm-1.934-1.182v.004h2v-.004zM8.955 6.933l-1.125.064.113 1.996 1.125-.063zM6.888 8.055c.03.499.235.97.578 1.333l1.452-1.375a.13.13 0 01-.034-.078zm.578 1.333a2.12 2.12 0 001.3.65l.229-1.986a.13.13 0 01-.077-.039zm2.407-.226.131-1.114-1.986-.234-.131 1.114zm-.333-4.63.967.573 1.02-1.72-.967-.574zm1.985-1.149-.967-.57-1.016 1.724.968.57zm-.475.292v-.004h-2v.004zm7.133 11.065a10.2 10.2 0 00-2.914-6.005l-1.414 1.414c1.3 1.3 2.125 3 2.342 4.826zm-2.914-6.005A10.2 10.2 0 009.264 5.82l-.236 1.986a8.2 8.2 0 014.827 2.342zM8.153 6.697l-.262 2.235 1.986.233.262-2.235zm.614 3.345a5.95 5.95 0 015.199 5.195l1.986-.234A7.95 7.95 0 009 8.056zm6.309 6.071 2.23-.262-.233-1.987-2.231.263zM11.138 7.81a5.4 5.4 0 01.743-3.054l-1.72-1.02a7.4 7.4 0 00-1.02 4.19zM8.226 2.587a9.63 9.63 0 00-1.33 5.466l1.996-.116a7.63 7.63 0 011.054-4.33zM7.95 8.993l2.247-.127-.114-1.997-2.246.128zm3.93-4.237a5.4 5.4 0 012.391-2.144l-.83-1.82a7.4 7.4 0 00-3.28 2.942zm2.885-3.47L13.829-.76l-1.82.83.938 2.048zm-2.262-2.54a9.63 9.63 0 00-4.277 3.841l1.72 1.02A7.63 7.63 0 0113.334.566zm1.769 3.866a5.4 5.4 0 013.187-.402l.354-1.968a7.4 7.4 0 00-4.372.551zm3.94-4.582a9.63 9.63 0 00-5.704.711l.829 1.82a7.63 7.63 0 014.519-.563zm-6.2 2.036.934 2.05 1.82-.828-.933-2.051zM17.46 2.21a5.4 5.4 0 012.846 1.486l1.413-1.415A7.4 7.4 0 0017.813.242zm4.259 1.487 1.59-1.587L21.895.695l-1.59 1.586zm1.59-3.002a9.63 9.63 0 00-5.097-2.665l-.355 1.968a7.63 7.63 0 014.038 2.112zm-3.004 3a5.4 5.4 0 011.486 2.846l1.968-.354a7.4 7.4 0 00-2.039-3.905zm2.646 3.653 2.217-.397-.354-1.969-2.216.397zm3.024-1.56A9.63 9.63 0 0023.308.695L21.894 2.11a7.63 7.63 0 012.112 4.034zM21.894.695l-1.59 1.59L21.718 3.7l1.59-1.59zm.117 2.298v-.004h-2v.004zm-.221 3.55a5.4 5.4 0 01-.395 3.19l1.82.829a7.4 7.4 0 00.543-4.378zm.1 4.514 2.043.934.831-1.82-2.043-.933zm3.369.44a9.63 9.63 0 00.715-5.709l-1.968.356a7.6 7.6 0 01-.567 4.522zm-.447-6.515-2.213.402.357 1.967 2.212-.4zm-1.328.678-.003-.003-1.414 1.414.003.004zm-2.089 4.072a5.37 5.37 0 01-2.15 2.39l1.02 1.721a7.4 7.4 0 002.95-3.28zm-2.5 3.762 1.152 1.935 1.719-1.023-1.152-1.935zm2.522 2.283a9.63 9.63 0 003.842-4.28l-1.82-.83a7.63 7.63 0 01-3.044 3.39zm3.349-5.605-2.044-.937-.834 1.818 2.044.937zm-3.461-.028v.004h2v-.004zm-2.06 1.978a5.4 5.4 0 01-3.051.743l-.115 1.997a7.4 7.4 0 004.186-1.02zm-4.107 1.685-.128 2.25 1.997.113.128-2.25zm.814 3.305a9.6 9.6 0 005.466-1.339l-1.023-1.718a7.63 7.63 0 01-4.33 1.06zm5.814-2.709-1.148-1.931-1.719 1.021 1.148 1.932zm-2.007-2.42h-.004v2h.004z" mask="url(#nimiq-duotone-crypto-currencies-btc-eth-t2iv2z)"/></g><path stroke="currentColor" stroke-linecap="round" stroke-linejoin="round" stroke-width="1.2" d="M8.063 23.438a7.5 7.5 0 100-15 7.5 7.5 0 000 15"/><path stroke="currentColor" stroke-linecap="round" stroke-linejoin="round" stroke-width="1.2" d="M9.911 14.273a1.68 1.68 0 01-1.661 1.665H6.188v-3.376h2.07c.438 0 .862.23 1.17.54.31.312.487.732.487 1.17z"/><path stroke="currentColor" stroke-linecap="round" stroke-linejoin="round" stroke-width="1.2" d="M7.62 11.505v.862m0 7.095v.863m2.291-2.738c0 .44-.172.86-.483 1.17-.304.33-.723.529-1.17.555h-2.07v-3.375H8.25c.439 0 .866.165 1.178.477.31.311.487.731.487 1.17z"/><path fill="#fff" d="M16.455 3h.454a.453.453 0 00-.844-.233zm0 0-.39.232a.454.454 0 00.78 0zm0 0h-.45c0 .082.019.165.06.232zm2.085 3.472.229.39a.453.453 0 00.161-.622zM16.455 7.71l-.232-.39a.46.46 0 00-.222.39zm0 0-.232.39a.454.454 0 00.686-.39zm0 0 .233-.39a.45.45 0 00-.465 0zm0 0h-.454a.455.455 0 00.687.39zm0 0h.454a.45.45 0 00-.225-.39l-.225.39zm-2.081-1.238-.39-.232a.454.454 0 00.157.622zM16.455 3l.39.232A.45.45 0 0016.91 3h-.454m0 0 .39-.233a.454.454 0 00-.844.233zm2.475 3.24L16.85 2.767l-.78.465 2.085 3.473.78-.465zM16.688 8.1l2.08-1.238-.46-.78-2.085 1.238zm.225-.39H16h.912m-2.772-.848L16.223 8.1l.465-.78-2.085-1.238zm1.924-4.095-2.08 3.473.776.465 2.085-3.473z"/><path fill="#fff" fill-rule="evenodd" d="M16.151 11.389a.375.375 0 00.612 0l2.265-3.203c.232-.33-.15-.746-.5-.54l-1.882 1.118a.38.38 0 01-.382 0l-1.879-1.118c-.349-.206-.731.21-.499.54z" clip-rule="evenodd"/></g></g><defs><clipPath id="nimiq-duotone-crypto-currencies-btc-eth-t2iv2z"><use href="#nimiq-duotone-crypto-currencies-btc-eth-t2iv2z"/></clipPath></defs></g></svg>