<svg xmlns="http://www.w3.org/2000/svg" viewBox="0 0 24 24"><g fill="none"><g clip-path="url(#nimiq-duotone-successful-sequence-o4lkpw)"><path fill="currentColor" fill-opacity=".4" d="M10.5 0a1.125 1.125 0 00-1.125 1.125v3H18a2.25 2.25 0 012.25 2.25v6.375h2.625A1.125 1.125 0 0024 11.625v-10.5A1.125 1.125 0 0022.875 0z"/><path fill="currentColor" fill-opacity=".4" d="M5.625 5.25A1.125 1.125 0 004.5 6.375v4.313h9.563a1.125 1.125 0 011.124 1.124V18H18a1.125 1.125 0 001.125-1.125v-10.5A1.125 1.125 0 0018 5.25z"/><path stroke="currentColor" stroke-width="1.125" d="M.563 11.813a1.125 1.125 0 011.125-1.126h12.375a1.125 1.125 0 011.124 1.126v10.5a1.125 1.125 0 01-1.124 1.125H1.688a1.125 1.125 0 01-1.125-1.125z"/><path stroke="currentColor" stroke-linecap="round" stroke-linejoin="round" stroke-width="1.125" d="M11.25 15 8.1 19.163a.825.825 0 01-1.237.112l-1.613-1.65"/></g><defs><clipPath id="nimiq-duotone-successful-sequence-o4lkpw"><path fill="#fff" d="M0 0h24v24H0z"/></clipPath></defs></g></svg>