<svg xmlns="http://www.w3.org/2000/svg" viewBox="0 0 24 24"><g fill="none"><g stroke="currentColor" stroke-linejoin="round" stroke-width="1.2" clip-path="url(#nimiq-duotone-block-stairs-u218ue)"><path fill="#fff" d="M5.531.563H1.313a.75.75 0 00-.75.75V5.53c0 .414.335.75.75.75H5.53a.75.75 0 00.75-.75V1.313a.75.75 0 00-.75-.75Zm0 5.718H1.313a.75.75 0 00-.75.75v4.219c0 .414.335.75.75.75H5.53a.75.75 0 00.75-.75V7.031a.75.75 0 00-.75-.75Zm5.719 0H7.031a.75.75 0 00-.75.75v4.219c0 .414.336.75.75.75h4.219a.75.75 0 00.75-.75V7.031a.75.75 0 00-.75-.75ZM5.531 12H1.313a.75.75 0 00-.75.75v4.219c0 .414.335.75.75.75H5.53a.75.75 0 00.75-.75V12.75a.75.75 0 00-.75-.75Zm5.719 0H7.031a.75.75 0 00-.75.75v4.219c0 .414.336.75.75.75h4.219a.75.75 0 00.75-.75V12.75a.75.75 0 00-.75-.75Zm5.719 0H12.75a.75.75 0 00-.75.75v4.219c0 .414.336.75.75.75h4.219a.75.75 0 00.75-.75V12.75a.75.75 0 00-.75-.75ZM5.531 17.719H1.313a.75.75 0 00-.75.75v4.218c0 .415.335.75.75.75H5.53a.75.75 0 00.75-.75V18.47a.75.75 0 00-.75-.75Zm5.719 0H7.031a.75.75 0 00-.75.75v4.218c0 .415.336.75.75.75h4.219a.75.75 0 00.75-.75V18.47a.75.75 0 00-.75-.75Zm5.719 0H12.75a.75.75 0 00-.75.75v4.218c0 .415.336.75.75.75h4.219a.75.75 0 00.75-.75V18.47a.75.75 0 00-.75-.75Z" opacity=".4"/><path d="M22.688 17.719h-4.22a.75.75 0 00-.75.75v4.218c0 .415.337.75.75.75h4.22a.75.75 0 00.75-.75V18.47a.75.75 0 00-.75-.75Z"/></g><defs><clipPath id="nimiq-duotone-block-stairs-u218ue"><path fill="#fff" d="M0 0h24v24H0z"/></clipPath></defs></g></svg>