<svg xmlns="http://www.w3.org/2000/svg" viewBox="0 0 24 24"><defs><path id="nimiq-duotone-oasis-puzzle-6a4flc" fill="#fff" d="M0 0h24v24H0z"/></defs><g fill="none"><g clip-path="url(#nimiq-duotone-oasis-puzzle-6a4flc)"><mask id="nimiq-duotone-oasis-puzzle-6a4flc" width="24" height="24" x="0" y="0" maskUnits="userSpaceOnUse" style="mask-type:luminance"><use href="#nimiq-duotone-oasis-puzzle-6a4flc"/></mask><g mask="url(#nimiq-duotone-oasis-puzzle-6a4flc)"><path fill="currentColor" d="M24.263 0h-5.1v1.125h5.1zM25.5 12V1.2h-1.125V12zm0 10.8V12h-1.125v10.8zM19.163 24h5.1v-1.125h-5.1zm-1.2-1.988v.788h1.124v-.75h-1.125zm3.862-5.212c0 1.875-1.238 3.488-3 4.05l.375 1.05a5.335 5.335 0 003.75-5.1zm-3-4.05c1.762.525 3 2.137 3 4.05h1.125c0-2.4-1.575-4.425-3.75-5.138l-.375 1.125zm-2.175-2.363c-.525.3-1.125.45-1.762.45v1.126c.825 0 1.612-.225 2.287-.6zm-1.762.45A3.637 3.637 0 0111.25 7.2h-1.125a4.77 4.77 0 004.762 4.763zM11.25 7.2a3.617 3.617 0 013.637-3.637V2.437A4.77 4.77 0 0010.125 7.2zm3.637-3.637c.638 0 1.2.15 1.726.412L17.137 3a4.55 4.55 0 00-2.25-.562zM17.963 1.2v1.575h1.125V1.2zm1.125 10.388c0-.675-.524-1.05-.937-1.238a1.8 1.8 0 00-1.5.037l.525.976h.225l.3.037.225.15.037.037zm.076.075h-.038v-.075H18c0 .562.375 1.012.9 1.162l.3-1.088zm0 11.212c-.038 0-.076 0-.076-.075h-1.125c0 .675.526 1.2 1.2 1.2zm5.174-.075c0 .037 0 .075-.075.075V24c.675 0 1.2-.525 1.2-1.2zM16.614 3.975a1.88 1.88 0 001.5 0c.412-.15.974-.562.974-1.2h-1.125l-.262.188c-.262.112-.488.075-.562 0zM19.125 0a1.2 1.2 0 00-1.2 1.2h1.125c0-.037 0-.075.075-.075zm-.075 22.013v-.038l.113-.075-.375-1.05a1.24 1.24 0 00-.863 1.162zm5.212-20.888c.038 0 .075 0 .075.075h1.125c0-.675-.524-1.2-1.2-1.2zM14.625 9a1.875 1.875 0 100-3.75 1.875 1.875 0 000 3.75"/><path fill="currentColor" d="M9.525 15a1.875 1.875 0 100 3.75 1.875 1.875 0 000-3.75" opacity=".4"/><path stroke="currentColor" stroke-linecap="round" stroke-width="1.125" d="M21.563 23.438h1.687M21.563.563h1.687"/><g opacity=".4"><path fill="currentColor" d="M-.112 24h5.1v-1.125h-5.1zm-1.2-12v10.8h1.125V12zm0-10.8V12h1.125V1.2zm6.3-1.2h-5.1v1.125h5.1zm1.2 1.988V1.2H5.063v.75h1.125zM2.325 7.2c0-1.875 1.237-3.488 3-4.05L4.95 2.1A5.335 5.335 0 001.2 7.2zm3 4.05a4.2 4.2 0 01-3-4.05H1.2c0 2.4 1.575 4.425 3.75 5.138l.375-1.125zM7.5 13.613c.525-.3 1.125-.45 1.762-.45v-1.126c-.825 0-1.612.225-2.287.6zm1.762-.45A3.617 3.617 0 0112.9 16.8h1.125a4.77 4.77 0 00-4.763-4.763zM12.9 16.8a3.617 3.617 0 01-3.638 3.637v1.125a4.77 4.77 0 004.763-4.762zm-3.638 3.637c-.637 0-1.2-.15-1.725-.412L7.014 21a4.55 4.55 0 002.25.563zM6.187 22.8v-1.575H5.063V22.8zM5.063 12.412c0 .675.526 1.05.938 1.238.45.15 1.05.225 1.5-.037l-.525-.976H6.75l-.3-.037-.225-.15-.037-.037zm-.075-.075h.075v.075h1.125c0-.562-.375-1.012-.9-1.162zm0-11.212c.038 0 .075 0 .075.075h1.125c0-.675-.525-1.2-1.2-1.2zM-.187 1.2c0-.037 0-.075.075-.075V0a1.2 1.2 0 00-1.2 1.2zm7.725 18.825a1.88 1.88 0 00-1.5 0c-.413.15-.976.563-.976 1.2h1.125l.263-.187c.263-.113.487-.076.563 0zM4.988 24c.674 0 1.2-.525 1.2-1.2H5.063c0 .037 0 .075-.075.075zm.074-22.012v.037L4.95 2.1l.375 1.05a1.24 1.24 0 00.862-1.162zM-.112 22.875c-.038 0-.075 0-.075-.075h-1.125c0 .675.525 1.2 1.2 1.2z"/><path stroke="currentColor" stroke-linecap="round" stroke-width="1.125" d="M.563 23.438H2.25M.563.563H2.25"/></g></g></g><defs><clipPath id="nimiq-duotone-oasis-puzzle-6a4flc"><use href="#nimiq-duotone-oasis-puzzle-6a4flc"/></clipPath></defs></g></svg>