<svg xmlns="http://www.w3.org/2000/svg" viewBox="0 0 23 24"><g fill="none"><g clip-path="url(#nimiq-duotone-sparkling-swap-s9r7wj)"><path fill="currentColor" fill-rule="evenodd" d="M20.928 19.632a.48.48 0 000-.768l-6.24-4.176a.48.48 0 00-.672.384v2.4c0 .288-.24.48-.48.48H5.76a.48.48 0 00-.48.48v1.584c0 .24.192.48.48.48h7.824c.24 0 .48.192.48.48v2.4a.48.48 0 00.72.384l6.24-4.128zM.768 10.464a.48.48 0 000 .768l6.24 4.176a.48.48 0 00.72-.384v-2.256c0-.288.192-.48.48-.48h4.896c.24 0 .48-.192.48-.48V9.984c0-.288-.24-.48-.48-.48H8.208a.48.48 0 01-.48-.48V6.72a.48.48 0 00-.72-.384z" clip-rule="evenodd"/><path stroke="currentColor" stroke-linecap="round" stroke-opacity=".4" stroke-width="1.2" d="M.912 3.504H4.08M2.496 1.92v3.168m16.608 5.76h2.4m-1.2-1.152v2.4M12.672 2.64h3.936M14.64.672v3.984"/></g><defs><clipPath id="nimiq-duotone-sparkling-swap-s9r7wj"><path fill="#fff" d="M0 0h22.56v24H0z"/></clipPath></defs></g></svg>