<svg xmlns="http://www.w3.org/2000/svg" viewBox="0 0 23 24"><defs><path id="nimiq-duotone-fiat-exchange-nsutey" fill="#fff" d="M7.944 4.433h11v11h-11z"/><path id="nimiq-duotone-fiat-exchange-nsutey" d="M9.53 9.235h.013a4.003 4.003 0 013.998 4.198 3.722 3.722 0 002.313-6.342A3.723 3.723 0 009.53 9.235"/><path id="nimiq-duotone-fiat-exchange-nsutey" fill="currentColor" d="M9.53 9.235h.013a4.003 4.003 0 013.998 4.198 3.722 3.722 0 002.313-6.342A3.723 3.723 0 009.53 9.235"/><path id="nimiq-duotone-fiat-exchange-nsutey" fill="currentColor" d="m9.53 9.235-1.05-.14a1.06 1.06 0 001.053 1.198zm4.01 4.198-1.057-.05a1.058 1.058 0 001.149 1.105zm1.582-.508.54.91zm1.486-1.655-.963-.44zm.277-2.208-1.042.188zm-1.031-1.971-.75.749zM13.882 6.06l-.188 1.042zm-2.207.277.44.963zm-1.656 1.486-.91-.54zm-.476.353h-.016l.006 2.117h.01zm5.061 5.061a5.06 5.06 0 00-5.061-5.061v2.117a2.944 2.944 0 012.944 2.944zm-.006.248q.006-.124.006-.248h-2.117q0 .073-.004.145zm-.017-1.47c-.346.206-.733.33-1.131.364l.182 2.11a4.8 4.8 0 002.03-.653zm1.064-1.185a2.67 2.67 0 01-1.064 1.185l1.082 1.82a4.8 4.8 0 001.909-2.126zm.198-1.58a2.67 2.67 0 01-.198 1.58l1.927.88a4.8 4.8 0 00.355-2.836zm-.738-1.41c.384.384.641.876.738 1.41l2.084-.376a4.8 4.8 0 00-1.325-2.532zm-1.41-.738a2.66 2.66 0 011.41.738l1.497-1.498a4.8 4.8 0 00-2.532-1.324zm-1.58.198a2.66 2.66 0 011.58-.198l.375-2.084a4.8 4.8 0 00-2.835.356zM10.93 8.364c.277-.467.69-.838 1.184-1.064l-.88-1.926A4.8 4.8 0 009.11 7.283zm-.35 1.01c.047-.355.165-.7.35-1.01L9.109 7.283a4.8 4.8 0 00-.629 1.812z"/><path id="nimiq-duotone-fiat-exchange-nsutey" fill="#fff" stroke="currentColor" d="M9 18.001a4.412 4.412 0 100-8.823A4.412 4.412 0 009 18"/></defs><g fill="none"><g clip-path="url(#nimiq-duotone-fiat-exchange-nsutey)"><mask id="nimiq-duotone-fiat-exchange-nsutey" width="11" height="11" x="7.944" y="4.433" fill="#000" maskUnits="userSpaceOnUse"><use href="#nimiq-duotone-fiat-exchange-nsutey"/><use href="#nimiq-duotone-fiat-exchange-nsutey" fill-rule="evenodd" clip-rule="evenodd"/></mask><use href="#nimiq-duotone-fiat-exchange-nsutey" fill-opacity=".6" fill-rule="evenodd" clip-rule="evenodd"/><use href="#nimiq-duotone-fiat-exchange-nsutey" mask="url(#nimiq-duotone-fiat-exchange-nsutey)"/><use href="#nimiq-duotone-fiat-exchange-nsutey" stroke-linecap="round" stroke-linejoin="round" stroke-width="1.059"/><g stroke="currentColor" stroke-linecap="round" opacity=".4"><path stroke-width="1.059" d="M1.576 16.185a10.55 10.55 0 012.731-12.56 10.56 10.56 0 0112.84-.616"/><path stroke-linejoin="round" stroke-width=".879" d="M17.623 1.059v2.799h-2.799"/></g><g stroke="currentColor" stroke-linecap="round" opacity=".4"><path stroke-width="1.059" d="M20.946 7.11a10.55 10.55 0 01-2.73 12.56 10.56 10.56 0 01-12.84.616"/><path stroke-linejoin="round" stroke-width=".879" d="M4.759 22.211v-2.798h2.798"/></g><mask id="nimiq-duotone-fiat-exchange-nsutey" width="11" height="11" x="7.944" y="4.433" fill="#000" maskUnits="userSpaceOnUse"><use href="#nimiq-duotone-fiat-exchange-nsutey"/><use href="#nimiq-duotone-fiat-exchange-nsutey" fill-rule="evenodd" clip-rule="evenodd"/></mask><use href="#nimiq-duotone-fiat-exchange-nsutey" fill-opacity=".6" fill-rule="evenodd" clip-rule="evenodd"/><use href="#nimiq-duotone-fiat-exchange-nsutey" mask="url(#nimiq-duotone-fiat-exchange-nsutey)"/><use href="#nimiq-duotone-fiat-exchange-nsutey" stroke-linecap="round" stroke-linejoin="round" stroke-width="1.059"/><mask id="nimiq-duotone-fiat-exchange-nsutey" width="5" height="7" x="6.412" y="9.589" fill="#000" maskUnits="userSpaceOnUse"><path fill="#fff" d="M6.412 9.589h5v7h-5z"/><path d="M8.91 10.59a.353.353 0 00-.353.352v.399a1.25 1.25 0 00-.789.336 1.26 1.26 0 00-.356.905c0 .706.627 1.184 1.26 1.184h.475c.368 0 .596.177.596.54 0 .286-.244.484-.596.484H7.961a.353.353 0 000 .706h.596v.388a.353.353 0 00.706 0v-.399c.623-.053 1.185-.517 1.185-1.18 0-.728-.621-1.245-1.301-1.245h-.474c-.284 0-.555-.204-.555-.478 0-.193.057-.317.145-.402.087-.086.216-.144.41-.144h1.185a.353.353 0 000-.705h-.595v-.389a.353.353 0 00-.353-.353"/></mask><path fill="currentColor" d="M8.91 10.59a.353.353 0 00-.353.352v.399a1.25 1.25 0 00-.789.336 1.26 1.26 0 00-.356.905c0 .706.627 1.184 1.26 1.184h.475c.368 0 .596.177.596.54 0 .286-.244.484-.596.484H7.961a.353.353 0 000 .706h.596v.388a.353.353 0 00.706 0v-.399c.623-.053 1.185-.517 1.185-1.18 0-.728-.621-1.245-1.301-1.245h-.474c-.284 0-.555-.204-.555-.478 0-.193.057-.317.145-.402.087-.086.216-.144.41-.144h1.185a.353.353 0 000-.705h-.595v-.389a.353.353 0 00-.353-.353"/><path stroke="currentColor" stroke-width=".353" d="M8.91 10.59a.353.353 0 00-.353.352v.399a1.25 1.25 0 00-.789.336 1.26 1.26 0 00-.356.905c0 .706.627 1.184 1.26 1.184h.475c.368 0 .596.177.596.54 0 .286-.244.484-.596.484H7.961a.353.353 0 000 .706h.596v.388a.353.353 0 00.706 0v-.399c.623-.053 1.185-.517 1.185-1.18 0-.728-.621-1.245-1.301-1.245h-.474c-.284 0-.555-.204-.555-.478 0-.193.057-.317.145-.402.087-.086.216-.144.41-.144h1.185a.353.353 0 000-.705h-.595v-.389a.353.353 0 00-.353-.353Z" mask="url(#nimiq-duotone-fiat-exchange-nsutey)"/></g><defs><clipPath id="nimiq-duotone-fiat-exchange-nsutey"><path fill="#fff" d="M0 0h22.588v24H0z"/></clipPath></defs></g></svg>