<svg xmlns="http://www.w3.org/2000/svg" viewBox="0 0 24 24"><defs><path id="nimiq-duotone-peer-to-peer-whstc7" fill="#fff" d="M0 0h24v24H0z"/></defs><g fill="none"><g clip-path="url(#nimiq-duotone-peer-to-peer-whstc7)"><mask id="nimiq-duotone-peer-to-peer-whstc7" width="24" height="24" x="0" y="0" maskUnits="userSpaceOnUse" style="mask-type:luminance"><use href="#nimiq-duotone-peer-to-peer-whstc7"/></mask><g mask="url(#nimiq-duotone-peer-to-peer-whstc7)"><path stroke="currentColor" stroke-linecap="round" stroke-linejoin="round" stroke-width="1.2" d="m.986 5.036 2.006 1.991 1.992-2.006"/><path stroke="currentColor" stroke-linecap="round" stroke-linejoin="round" stroke-width="1.2" d="M7.973 1.013a5 5 0 00-4.988 5.013v1.002m20.04 11.936-2.006-1.991-1.995 2.002"/><path stroke="currentColor" stroke-linecap="round" stroke-linejoin="round" stroke-width="1.2" d="M16.035 22.988a4.997 4.997 0 004.988-5.018v-.997"/><path stroke="currentColor" stroke-linecap="round" stroke-miterlimit="10" stroke-width="1.2" d="M7.313 23.438a6.75 6.75 0 100-13.501 6.75 6.75 0 000 13.5Z"/><path stroke="currentColor" stroke-linecap="round" stroke-linejoin="round" stroke-width="1.2" d="M1.5 13.5a11.23 11.23 0 005.801 3.086c2.213.435 4.5.203 6.574-.66"/><g opacity=".4"><path stroke="currentColor" stroke-linecap="round" stroke-linejoin="round" stroke-width="1.2" d="M14.25 15.375A7.5 7.5 0 108.625 9.75"/><path fill="currentColor" d="M16.5 7.688A7.4 7.4 0 0018.281 5.8q.226.222.47.387c1.488 1.03 4.5 1.125 4.5 1.125s-.053-.874-.293-1.89a7.5 7.5 0 00-2.31-3.195 4 4 0 00-.41-.14l.012-.025.011-.128A7.5 7.5 0 008.441 8.34c.113.3.188.473.188.473s5.306.626 7.875-1.125z"/></g></g></g><defs><clipPath id="nimiq-duotone-peer-to-peer-whstc7"><use href="#nimiq-duotone-peer-to-peer-whstc7"/></clipPath></defs></g></svg>