<svg xmlns="http://www.w3.org/2000/svg" viewBox="0 0 25 24"><mask id="nimiq-duotone-cactus-o1h083" width="25" height="24" x="0" y="0" maskUnits="userSpaceOnUse" style="mask-type:luminance"><path fill="#fff" d="M.15 0h24v24h-24z"/></mask><g fill="none" mask="url(#nimiq-duotone-cactus-o1h083)"><path stroke="currentColor" stroke-linecap="round" stroke-width="3" d="M12.15 16.5h1.8a3 3 0 003-3v-1.8"/><path stroke="currentColor" stroke-linecap="round" stroke-width="3.6" d="M12.15 5.7V21"/><path stroke="currentColor" stroke-linecap="round" stroke-width="3" d="M12.15 14.4h-1.8a3 3 0 01-3-3V9.6"/><path fill="currentColor" d="M4.5 3.9a1.95 1.95 0 100-3.9 1.95 1.95 0 000 3.9" opacity=".4"/><path fill="currentColor" fill-rule="evenodd" d="M3.199 23.708c-.308.04-.486-.323-.25-.525 2.346-2.002 5.68-3.083 9.201-3.083s6.857 1.215 9.203 3.244c.235.203.056.564-.251.522-2.894-.394-5.969-.678-8.952-.678s-6.058.152-8.951.52" clip-rule="evenodd"/></g></svg>