<svg xmlns="http://www.w3.org/2000/svg" viewBox="0 0 20 25"><path fill="currentColor" d="M2.384 8h.5zm7.5-7.5V1zm2.543.955a.5.5 0 00.415-.91zM2.384 13.319h-.5zm-.527 2.237.447.223zm-1.25 2.497-.447-.224zM17.884 9a.5.5 0 00-1 0zm-.5 4.32h.5zm.528 2.235-.447.224zm1.249 2.497.447-.223zM9.384 19a.5.5 0 100 1zm3.858 2.986-.48-.14zm-.883 1.489-.353-.354zm-5.833-1.489.48-.14zM2.884 8a7 7 0 012.05-4.95l-.707-.707A8 8 0 001.884 8zm2.05-4.95A7 7 0 019.885 1V0a8 8 0 00-5.657 2.343zM9.885 1c1.053 0 1.67.057 2.543.455l.415-.91C11.78.061 10.998 0 9.884 0zm-8 7v5.32h1V8zm0 5.32a4.5 4.5 0 01-.475 2.012l.895.447a5.5 5.5 0 00.58-2.46zm-.475 2.012L.16 17.829l.895.447 1.249-2.497zM.16 17.829A1.5 1.5 0 001.502 20v-1a.5.5 0 01-.447-.723zM1.502 20h8.882v-1H1.502zM16.884 9v4.32h1V9zm0 4.32a5.5 5.5 0 00.58 2.459l.895-.447a4.5 4.5 0 01-.475-2.013zm.58 2.459 1.25 2.497.894-.448-1.249-2.496zm1.25 2.497a.5.5 0 01-.448.724v1a1.5 1.5 0 001.342-2.171zm-.448.724H9.384v1h8.882zm-5.882 2.5c.142 0 .26.06.326.132a.21.21 0 01.053.213l.959.282a1.2 1.2 0 00-.274-1.17 1.44 1.44 0 00-1.064-.457zm.378.346a3 3 0 01-.756 1.275l.707.707a4 4 0 001.01-1.701zm-.756 1.275a3 3 0 01-1.328.772l.265.964a4 4 0 001.77-1.029zm-1.328.772a3 3 0 01-1.535.014l-.248.969a4 4 0 002.048-.019zm-1.535.014a3 3 0 01-1.342-.748l-.694.72a4 4 0 001.788.997zM7.8 23.159a3 3 0 01-.795-1.313l-.96.281a4 4 0 001.061 1.752zm-.795-1.314a.21.21 0 01.053-.213.45.45 0 01.325-.132v-1c-.41 0-.8.169-1.063.457a1.2 1.2 0 00-.274 1.17zm.378-.345h5v-1h-5zM18.884 4a2.5 2.5 0 01-2.5 2.5v1a3.5 3.5 0 003.5-3.5zm-2.5 2.5a2.5 2.5 0 01-2.5-2.5h-1a3.5 3.5 0 003.5 3.5zm-2.5-2.5a2.5 2.5 0 012.5-2.5v-1a3.5 3.5 0 00-3.5 3.5zm2.5-2.5a2.5 2.5 0 012.5 2.5h1a3.5 3.5 0 00-3.5-3.5z"/></svg>