<svg xmlns="http://www.w3.org/2000/svg" viewBox="0 0 28 32"><mask id="nimiq-duotone-key-puzzle-90mg2k" fill="#fff"><path d="M12.18.042c-1.17.097-2.84.792-3.057 1.272-.054.119-.048.145.07.226.389.27 1.235 1.052 1.267 1.165.044.189-.054.329-.372.534-.43.28-.496.377-.49.733 0 .366.097.582.34.744.199.135.576.167.776.065.064-.033.253-.195.42-.356.227-.221.335-.291.432-.275.156.021.377.312.798 1.046.172.29.345.539.388.55.188.032 1.488-.906 1.65-1.192.113-.205.08-.291-.28-.68-.19-.21-.362-.441-.384-.517-.048-.2.011-.512.13-.668.194-.264.377-.356.706-.356.388 0 .528.086.814.517.124.178.28.35.35.383.2.092.475-.08 1.127-.728l.599-.587-.324-.297C16.213.76 15.032.231 13.663.07c-.674-.087-.755-.087-1.483-.027"/></mask><g fill="none"><path fill="currentColor" stroke="currentColor" stroke-width=".021" d="M12.18.042c-1.17.097-2.84.792-3.057 1.272-.054.119-.048.145.07.226.389.27 1.235 1.052 1.267 1.165.044.189-.054.329-.372.534-.43.28-.496.377-.49.733 0 .366.097.582.34.744.199.135.576.167.776.065.064-.033.253-.195.42-.356.227-.221.335-.291.432-.275.156.021.377.312.798 1.046.172.29.345.539.388.55.188.032 1.488-.906 1.65-1.192.113-.205.08-.291-.28-.68-.19-.21-.362-.441-.384-.517-.048-.2.011-.512.13-.668.194-.264.377-.356.706-.356.388 0 .528.086.814.517.124.178.28.35.35.383.2.092.475-.08 1.127-.728l.599-.587-.324-.297C16.213.76 15.032.231 13.663.07c-.674-.087-.755-.087-1.483-.027Z" mask="url(#nimiq-duotone-key-puzzle-90mg2k)"/><g filter="url(#nimiq-duotone-key-puzzle-90mg2k)" opacity=".5"><mask id="nimiq-duotone-key-puzzle-90mg2k" fill="#fff"><path d="M6.968 7.04c-1.008 1.062-1.542 3.073-1.256 4.717.345 1.995 1.8 3.57 3.827 4.162.847.243 1.887.275 2.696.081.156-.032.232-.032.275.016.08.086 1.531 1.839 3.504 4.243 2.933 3.57 3.219 3.909 3.354 4 .075.049.296.103.49.119s.766.07 1.267.119c.577.053.927.064.96.032.048-.049.075-.264.215-1.914l.065-.792-.226-.232a2.1 2.1 0 01-.34-.496c-.124-.27-.13-.378-.086-1.348l.01-.21-.555-.07c-1.067-.124-1.056-.114-.965-1.057.033-.394.038-.652.006-.68-.027-.026-.33-.08-.669-.113-.366-.037-.674-.097-.75-.145l-.129-.081.038-.75.038-.743-.124-.027c-.07-.011-.361-.049-.652-.076-.356-.038-.567-.086-.653-.156-.102-.076-1.164-1.321-1.585-1.86-.065-.076-.043-.14.146-.448.463-.77.711-1.741.711-2.75 0-.991-.172-1.708-.609-2.582-.35-.706-.291-.7-.927-.07-.302.302-.663.61-.798.68-.237.129-.254.129-.383.043-.08-.049-.242-.238-.361-.415-.248-.367-.388-.475-.663-.523-.4-.065-.874.264-.938.647-.054.355.016.528.388.91.437.454.453.572.124.89-.507.48-1.391 1.073-1.531 1.02-.038-.017-.157-.19-.27-.394-.27-.502-.728-1.203-.776-1.203a.6.6 0 01-.13-.032c-.053-.022-.21.092-.447.318-.205.189-.437.361-.518.383-.377.091-.9-.232-.997-.615-.108-.426.06-.744.555-1.056.265-.168.378-.356.297-.502-.076-.15-.798-.803-1.138-1.035l-.302-.205z"/></mask><path fill="currentColor" d="M6.968 7.04c-1.008 1.062-1.542 3.073-1.256 4.717.345 1.995 1.8 3.57 3.827 4.162.847.243 1.887.275 2.696.081.156-.032.232-.032.275.016.08.086 1.531 1.839 3.504 4.243 2.933 3.57 3.219 3.909 3.354 4 .075.049.296.103.49.119s.766.07 1.267.119c.577.053.927.064.96.032.048-.049.075-.264.215-1.914l.065-.792-.226-.232a2.1 2.1 0 01-.34-.496c-.124-.27-.13-.378-.086-1.348l.01-.21-.555-.07c-1.067-.124-1.056-.114-.965-1.057.033-.394.038-.652.006-.68-.027-.026-.33-.08-.669-.113-.366-.037-.674-.097-.75-.145l-.129-.081.038-.75.038-.743-.124-.027c-.07-.011-.361-.049-.652-.076-.356-.038-.567-.086-.653-.156-.102-.076-1.164-1.321-1.585-1.86-.065-.076-.043-.14.146-.448.463-.77.711-1.741.711-2.75 0-.991-.172-1.708-.609-2.582-.35-.706-.291-.7-.927-.07-.302.302-.663.61-.798.68-.237.129-.254.129-.383.043-.08-.049-.242-.238-.361-.415-.248-.367-.388-.475-.663-.523-.4-.065-.874.264-.938.647-.054.355.016.528.388.91.437.454.453.572.124.89-.507.48-1.391 1.073-1.531 1.02-.038-.017-.157-.19-.27-.394-.27-.502-.728-1.203-.776-1.203a.6.6 0 01-.13-.032c-.053-.022-.21.092-.447.318-.205.189-.437.361-.518.383-.377.091-.9-.232-.997-.615-.108-.426.06-.744.555-1.056.265-.168.378-.356.297-.502-.076-.15-.798-.803-1.138-1.035l-.302-.205z"/><path stroke="currentColor" stroke-width=".021" d="M6.968 7.04c-1.008 1.062-1.542 3.073-1.256 4.717.345 1.995 1.8 3.57 3.827 4.162.847.243 1.887.275 2.696.081.156-.032.232-.032.275.016.08.086 1.531 1.839 3.504 4.243 2.933 3.57 3.219 3.909 3.354 4 .075.049.296.103.49.119s.766.07 1.267.119c.577.053.927.064.96.032.048-.049.075-.264.215-1.914l.065-.792-.226-.232a2.1 2.1 0 01-.34-.496c-.124-.27-.13-.378-.086-1.348l.01-.21-.555-.07c-1.067-.124-1.056-.114-.965-1.057.033-.394.038-.652.006-.68-.027-.026-.33-.08-.669-.113-.366-.037-.674-.097-.75-.145l-.129-.081.038-.75.038-.743-.124-.027c-.07-.011-.361-.049-.652-.076-.356-.038-.567-.086-.653-.156-.102-.076-1.164-1.321-1.585-1.86-.065-.076-.043-.14.146-.448.463-.77.711-1.741.711-2.75 0-.991-.172-1.708-.609-2.582-.35-.706-.291-.7-.927-.07-.302.302-.663.61-.798.68-.237.129-.254.129-.383.043-.08-.049-.242-.238-.361-.415-.248-.367-.388-.475-.663-.523-.4-.065-.874.264-.938.647-.054.355.016.528.388.91.437.454.453.572.124.89-.507.48-1.391 1.073-1.531 1.02-.038-.017-.157-.19-.27-.394-.27-.502-.728-1.203-.776-1.203a.6.6 0 01-.13-.032c-.053-.022-.21.092-.447.318-.205.189-.437.361-.518.383-.377.091-.9-.232-.997-.615-.108-.426.06-.744.555-1.056.265-.168.378-.356.297-.502-.076-.15-.798-.803-1.138-1.035l-.302-.205z" mask="url(#nimiq-duotone-key-puzzle-90mg2k)"/></g><defs><filter id="nimiq-duotone-key-puzzle-90mg2k" width="28" height="28.977" x="0" y="2.896" color-interpolation-filters="sRGB" filterUnits="userSpaceOnUse"><feFlood flood-opacity="0" result="BackgroundImageFix"/><feColorMatrix in="SourceAlpha" result="hardAlpha" values="0 0 0 0 0 0 0 0 0 0 0 0 0 0 0 0 0 0 127 0"/><feOffset dy=".11"/><feGaussianBlur stdDeviation=".183"/><feColorMatrix values="0 0 0 0 0.231373 0 0 0 0 0.298039 0 0 0 0 0.415686 0 0 0 0.0525061 0"/><feBlend in2="BackgroundImageFix" result="effect1_dropShadow_534_255"/><feColorMatrix in="SourceAlpha" result="hardAlpha" values="0 0 0 0 0 0 0 0 0 0 0 0 0 0 0 0 0 0 127 0"/><feOffset dy=".369"/><feGaussianBlur stdDeviation=".615"/><feColorMatrix values="0 0 0 0 0.231373 0 0 0 0 0.298039 0 0 0 0 0.415686 0 0 0 0.0774939 0"/><feBlend in2="effect1_dropShadow_534_255" result="effect2_dropShadow_534_255"/><feColorMatrix in="SourceAlpha" result="hardAlpha" values="0 0 0 0 0 0 0 0 0 0 0 0 0 0 0 0 0 0 127 0"/><feOffset dy="1.653"/><feGaussianBlur stdDeviation="2.755"/><feColorMatrix values="0 0 0 0 0.231373 0 0 0 0 0.298039 0 0 0 0 0.415686 0 0 0 0.13 0"/><feBlend in2="effect2_dropShadow_534_255" result="effect3_dropShadow_534_255"/><feBlend in="SourceGraphic" in2="effect3_dropShadow_534_255" result="shape"/></filter></defs></g></svg>