<svg xmlns="http://www.w3.org/2000/svg" viewBox="0 0 24 24"><g fill="none"><g stroke="currentColor" stroke-linecap="round" stroke-miterlimit="10" stroke-width="1.125" clip-path="url(#nimiq-duotone-bank-building-wd9eff)"><path d="M.563 3.075 12.037.75l11.4 2.325"/><path d="M3 2.625v2.138a.637.637 0 00.638.637h17.137a.6.6 0 00.6-.638V2.626"/><path d="M5.25 6v11.25M7.875 6v11.25M10.688 6v11.25m2.624-11.625V17.25m2.813-11.625V17.25M18.75 5.625V17.25" opacity=".4"/><path d="M4.5 17.438h15c.188 0 .375.112.525.3.15.15.225.412.225.675v2.024H3.75v-2.024l.038-.375.187-.3.225-.226zm17.138 3H2.363c-.488 0-.863.45-.863.975v1.05c0 .524.375.974.862.974h19.275c.488 0 .863-.45.863-.975v-1.05c0-.524-.375-.974-.863-.974Z"/></g><defs><clipPath id="nimiq-duotone-bank-building-wd9eff"><path fill="#fff" d="M0 0h24v24H0z"/></clipPath></defs></g></svg>