<svg xmlns="http://www.w3.org/2000/svg" viewBox="0 0 24 24"><g fill="none"><g clip-path="url(#nimiq-duotone-employee-8ge4gu)"><mask id="nimiq-duotone-employee-8ge4gu" width="24" height="24" x="0" y="0" maskUnits="userSpaceOnUse" style="mask-type:luminance"><path fill="#fff" d="M22.5 0h-21A1.5 1.5 0 000 1.5v21A1.5 1.5 0 001.5 24h21a1.5 1.5 0 001.5-1.5v-21A1.5 1.5 0 0022.5 0"/></mask><g mask="url(#nimiq-duotone-employee-8ge4gu)"><path fill="currentColor" d="M22.875 9.75H19.5a.75.75 0 00-.75.75v4.125c0 .414.336.75.75.75h3.375a.75.75 0 00.75-.75V10.5a.75.75 0 00-.75-.75" opacity=".4"/><path stroke="currentColor" stroke-linecap="round" stroke-linejoin="round" stroke-width="1.2" d="M19.688.563H4.313a3.75 3.75 0 00-3.75 3.75v15.375a3.75 3.75 0 003.75 3.75h15.375a3.75 3.75 0 003.75-3.75V4.313a3.75 3.75 0 00-3.75-3.75"/><g fill="currentColor" opacity=".4"><path d="M13.5 7.313h-3L9.375 4.874 12 3.563l3 1.312z"/><path d="m13.5 6.938 2.25 10.492L12 20.063l-3.75-2.678L10.5 6.937"/></g><path stroke="currentColor" stroke-width="1.2" d="m6 .563 5.625 2.812-3.742 2.381a.75.75 0 01-.777.015L4.313 4.155a.75.75 0 01-.375-.649V.75M18 .563l-5.625 2.812 3.742 2.381a.75.75 0 00.777.015l2.794-1.616a.75.75 0 00.375-.649V.75"/></g></g><defs><clipPath id="nimiq-duotone-employee-8ge4gu"><path fill="#fff" d="M0 0h24v24H0z"/></clipPath></defs></g></svg>