<svg xmlns="http://www.w3.org/2000/svg" viewBox="0 0 24 24"><g fill="none"><g clip-path="url(#nimiq-duotone-incognito-i59vic)"><path stroke="currentColor" stroke-linecap="round" stroke-linejoin="round" stroke-width="1.125" d="m19.425 7.95-1.613-5.138a1.35 1.35 0 00-1.687-.862 15 15 0 01-4.125.9 15.3 15.3 0 01-4.125-.9 1.35 1.35 0 00-1.688.862L4.575 7.95m14.85 0a42.2 42.2 0 01-14.85 0m14.85 0 3.675 2.288a.675.675 0 01-.113 1.237A32.96 32.96 0 01.713 11.25.675.675 0 01.9 10.238L4.575 7.95"/><g opacity=".4"><path fill="currentColor" d="M7.125 22.5a3.375 3.375 0 100-6.75 3.375 3.375 0 000 6.75m9.75 0a3.375 3.375 0 100-6.75 3.375 3.375 0 000 6.75"/><path stroke="currentColor" stroke-width="1.125" d="M9.375 19.125a3.337 3.337 0 015.25 0"/></g></g><defs><clipPath id="nimiq-duotone-incognito-i59vic"><path fill="#fff" d="M0 0h24v24H0z"/></clipPath></defs></g></svg>