<svg xmlns="http://www.w3.org/2000/svg" viewBox="0 0 24 24"><g fill="none"><g stroke="currentColor" stroke-linecap="round" stroke-linejoin="round" stroke-width="1.108" clip-path="url(#nimiq-duotone-globe-jwvblp)"><path d="M12 23.262c6.22 0 11.262-5.042 11.262-11.262S18.22.738 12 .738.738 5.78.738 12 5.78 23.262 12 23.262"/><g opacity=".4"><path d="M12.185 23.262c2.956 0 5.353-5.042 5.353-11.262S15.141.738 12.185.738 6.83 5.78 6.83 12s2.397 11.262 5.353 11.262"/><path d="M12 17.538c6.22 0 11.262-2.397 11.262-5.353S18.22 6.83 12 6.83.738 9.228.738 12.185c0 2.956 5.042 5.353 11.262 5.353"/></g></g><defs><clipPath id="nimiq-duotone-globe-jwvblp"><path fill="#fff" d="M0 0h24v24H0z"/></clipPath></defs></g></svg>