<svg xmlns="http://www.w3.org/2000/svg" viewBox="0 0 42 24"><g fill="none"><g stroke="currentColor" stroke-width="1.13" clip-path="url(#nimiq-duotone-handshake-6keykn)"><path stroke-linecap="round" d="M27.674 7.329s-4.95-1.612-7.81-1.33c-4.662.457-8.418 3.888-11.484 6.938a1.25 1.25 0 01-1.488.206l-3.566-1.994a5.53 5.53 0 01-2.147-7.493l.41-.747C2.843.631 5.735-.177 8.004 1.093a8.07 8.07 0 007.434.233 6.6 6.6 0 015.15-.253l.99.364 6.857 3.041c.874.386 1.506 1.209 1.143 2.09-.316.77-1.087.92-1.904.76Z"/><path d="M30.829 11.68a1.95 1.95 0 10-2.904 2.604l2.84 3.166a1.95 1.95 0 102.904-2.604z"/><path d="M27.569 13.89a1.773 1.773 0 10-2.64 2.367l2.604 2.902a1.772 1.772 0 102.64-2.368z"/><path d="M24.93 16.257a1.773 1.773 0 10-2.64 2.368l2.367 2.639a1.773 1.773 0 102.64-2.369z"/><path d="M22.172 18.493a1.596 1.596 0 10-2.376 2.131l1.42 1.583a1.596 1.596 0 002.375-2.131z"/><g stroke-linecap="round" opacity=".4"><path d="m19.398 19.062-2.537 2.106a1.764 1.764 0 01-2.385-2.595l2.648-2.69m.001-.001-3.131 2.9a1.803 1.803 0 01-2.53-2.568l2.496-2.612"/><path d="M19.864 5.998c2.86-.28 7.81 1.33 7.81 1.33.817.16 1.588.01 1.904-.76.363-.881-.27-1.704-1.143-2.09m-6.857-3.041c1.113-.306 3.238-.625 4.381-.38l3.665.853c.984.21 2.287.153 3.192-.283l.521-.27a5.393 5.393 0 015.237 9.426l-5.377 3.198m-12.223 8.226-1.398 1.082a1.634 1.634 0 01-2.246-.236 1.69 1.69 0 01.186-2.373l1.88-1.618m-5.437-5.46-2.835 2.582a2.124 2.124 0 01-2.915-3.088l1.369-1.34"/></g></g><defs><clipPath id="nimiq-duotone-handshake-6keykn"><path fill="#fff" d="M0 0h41.633v24H0z"/></clipPath></defs></g></svg>