<svg xmlns="http://www.w3.org/2000/svg" viewBox="0 0 24 22"><g fill="none"><g clip-path="url(#nimiq-duotone-pin-with-shadow-6yjq7)"><path stroke="currentColor" stroke-linecap="round" stroke-linejoin="round" stroke-width=".62" d="M17.993 6.704c0 4.074-4.536 7.897-5.714 8.82a.45.45 0 01-.554 0c-1.178-.923-5.714-4.745-5.714-8.82a6.06 6.06 0 011.621-4.497 5.973 5.973 0 018.736 0 6.04 6.04 0 011.621 4.496z"/><path stroke="currentColor" stroke-linecap="round" stroke-linejoin="round" stroke-width=".62" d="M12 8.69a2.483 2.483 0 100-4.966 2.483 2.483 0 000 4.966" opacity=".4"/><path fill="currentColor" d="M12 21.517c4.228 0 7.655-.74 7.655-1.655 0-.914-3.427-1.655-7.655-1.655s-7.655.741-7.655 1.655S7.772 21.517 12 21.517" opacity=".4"/></g><defs><clipPath id="nimiq-duotone-pin-with-shadow-6yjq7"><path fill="#fff" d="M0 0h24v21.724H0z"/></clipPath></defs></g></svg>