<svg xmlns="http://www.w3.org/2000/svg" viewBox="0 0 24 24"><defs><path id="nimiq-duotone-network-desugy" fill="#fff" d="M0 0h24v24H0z"/></defs><g fill="none"><g clip-path="url(#nimiq-duotone-network-desugy)"><mask id="nimiq-duotone-network-desugy" width="24" height="24" x="0" y="0" maskUnits="userSpaceOnUse" style="mask-type:luminance"><use href="#nimiq-duotone-network-desugy"/></mask><g stroke="currentColor" stroke-linecap="round" stroke-linejoin="round" stroke-width="1.125" mask="url(#nimiq-duotone-network-desugy)"><path d="M12 19.125a7.125 7.125 0 100-14.25 7.125 7.125 0 000 14.25"/><g opacity=".4"><path d="M12.117 19.125c1.87 0 3.387-3.19 3.387-7.125s-1.516-7.125-3.387-7.125S8.73 8.065 8.73 12s1.516 7.125 3.387 7.125"/><path d="M12 15.504c3.935 0 7.125-1.516 7.125-3.387S15.935 8.729 12 8.729s-7.125 1.517-7.125 3.388 3.19 3.387 7.125 3.387"/></g><path d="M21.879 9.031a10.33 10.33 0 00-6.91-6.91m6.91 12.848a10.34 10.34 0 01-6.91 6.91m-5.938 0a10.33 10.33 0 01-6.91-6.91m0-5.938a10.34 10.34 0 016.91-6.91M12 2.813a1.125 1.125 0 100-2.25 1.125 1.125 0 000 2.25M21.188 12a1.125 1.125 0 102.25 0 1.125 1.125 0 00-2.25 0M12 21.188a1.125 1.125 0 100 2.25 1.125 1.125 0 000-2.25M2.813 12a1.125 1.125 0 10-2.25 0 1.125 1.125 0 002.25 0"/></g></g><defs><clipPath id="nimiq-duotone-network-desugy"><use href="#nimiq-duotone-network-desugy"/></clipPath></defs></g></svg>