<svg xmlns="http://www.w3.org/2000/svg" viewBox="0 0 24 24"><g fill="none"><g clip-path="url(#nimiq-duotone-smart-contract-iddtkq)"><mask id="nimiq-duotone-smart-contract-iddtkq" width="25" height="24" x="-1" y="0" maskUnits="userSpaceOnUse" style="mask-type:luminance"><path fill="#fff" d="M0 24h24V0H0z"/></mask><g mask="url(#nimiq-duotone-smart-contract-iddtkq)"><g fill="currentColor" opacity=".4"><path d="M16.987.487v5.175c0 .75.6 1.35 1.313 1.35h5.212"/><path d="M16.987.487v5.175c0 .75.6 1.35 1.313 1.35h5.212l-1.875-4.95z"/></g><path stroke="currentColor" stroke-linecap="round" stroke-linejoin="round" stroke-width="1.125" d="M21.45 23.4c1.125 0 1.987-.9 1.987-1.987V6.488A5.937 5.937 0 0017.512.563H2.55c-1.125 0-1.988.9-1.988 1.987v18.9c0 1.125.9 1.988 1.988 1.988z"/><path stroke="currentColor" stroke-linecap="round" stroke-linejoin="round" stroke-width="1.125" d="M10.125 8.137a2.175 2.175 0 01-2.175 2.138h-2.7V6h2.7a2.175 2.175 0 012.175 2.175z"/><path stroke="currentColor" stroke-linecap="round" stroke-linejoin="round" stroke-width="1.125" d="M7.125 4.5v1.125m0 9v1.125m3-3.3a2.176 2.176 0 01-2.175 2.175h-2.7v-4.35h2.7a2.175 2.175 0 012.175 2.175"/><path stroke="currentColor" stroke-linecap="round" stroke-width="1.125" d="M7.125 24.75V19.5" opacity=".4"/><g opacity=".4"><path stroke="currentColor" stroke-width="1.125" d="M14.625 15v2.925a.75.75 0 01-.413.675l-1.837.862a.75.75 0 00-.413.675v6.488"/><path fill="currentColor" d="M14.625 15.75a1.5 1.5 0 100-3 1.5 1.5 0 000 3"/></g><g opacity=".4"><path stroke="currentColor" stroke-width="1.125" d="M19.5 15v2.925a.75.75 0 01-.413.675l-1.837.862a.75.75 0 00-.413.675v6.488"/><path fill="currentColor" d="M19.5 15.75a1.5 1.5 0 100-3 1.5 1.5 0 000 3"/></g></g></g><defs><clipPath id="nimiq-duotone-smart-contract-iddtkq"><path fill="#fff" d="M0 0h24v24H0z"/></clipPath></defs></g></svg>