<svg xmlns="http://www.w3.org/2000/svg" viewBox="0 0 24 24"><g fill="none"><path fill="url(#nimiq-duotone-paper-plane-xan2az)" d="M1.274 9.655a.29.29 0 01.234-.26l21.217-4.384c.008-.001.011.01.004.013L6.882 12.697l-5.447-2.75a.29.29 0 01-.16-.292"/><path fill="url(#nimiq-duotone-paper-plane-xan2az)" d="M7.756 13.155a.59.59 0 00-.303.605l.375 2.513h4.207l-2.059-1.327a.144.144 0 01.143-.248l7.026 4.564a.295.295 0 00.437-.145l5.188-14.09z"/><path fill="url(#nimiq-duotone-paper-plane-xan2az)" fill-opacity=".6" d="M12.036 16.273H7.828l.45 3.02a.295.295 0 00.453.204l4.12-2.7z"/><path fill="url(#nimiq-duotone-paper-plane-xan2az)" d="M12.036 16.273H7.828l.45 3.02a.295.295 0 00.453.204l4.12-2.7z"/><defs><radialGradient id="nimiq-duotone-paper-plane-xan2az" cx="0" cy="0" r="1" gradientTransform="rotate(33.802 -7.591 4.595)scale(25.8189 24.3818)" gradientUnits="userSpaceOnUse"><stop stop-color="currentColor" stop-opacity=".6"/><stop offset="1" stop-color="currentColor" stop-opacity=".1"/></radialGradient><radialGradient id="nimiq-duotone-paper-plane-xan2az" cx="0" cy="0" r="1" gradientTransform="rotate(33.802 -7.591 4.595)scale(25.8189 24.3818)" gradientUnits="userSpaceOnUse"><stop stop-color="currentColor" stop-opacity=".6"/><stop offset="1" stop-color="currentColor" stop-opacity=".1"/></radialGradient><radialGradient id="nimiq-duotone-paper-plane-xan2az" cx="0" cy="0" r="1" gradientTransform="matrix(6.07592 2.39239 -1.5567 3.95352 9.178 16.755)" gradientUnits="userSpaceOnUse"><stop stop-color="currentColor"/><stop offset="1" stop-color="currentColor" stop-opacity=".62"/></radialGradient><radialGradient id="nimiq-duotone-paper-plane-xan2az" cx="0" cy="0" r="1" gradientTransform="matrix(6.07592 2.39239 -1.5567 3.95352 9.178 16.755)" gradientUnits="userSpaceOnUse"><stop stop-color="currentColor"/><stop offset="1" stop-color="currentColor" stop-opacity=".62"/></radialGradient></defs></g></svg>