<svg xmlns="http://www.w3.org/2000/svg" viewBox="0 0 24 24"><g fill="none"><g clip-path="url(#nimiq-duotone-crypto-currencies-btc-usdc-m7xr39)"><mask id="nimiq-duotone-crypto-currencies-btc-usdc-m7xr39" width="24" height="24" x="0" y="0" maskUnits="userSpaceOnUse" style="mask-type:luminance"><path fill="#fff" d="M23.65 0H.02v23.63h23.63z"/></mask><g mask="url(#nimiq-duotone-crypto-currencies-btc-usdc-m7xr39)"><path fill="currentColor" fill-rule="evenodd" d="M2.205 10.222a7.92 7.92 0 015.753-2.469c1.022 0 2 .194 2.897.545a5.723 5.723 0 10-8.65 1.923" clip-rule="evenodd" opacity=".4"/><path fill="currentColor" fill-opacity=".6" fill-rule="evenodd" d="M15.842 14.757a7.94 7.94 0 00-6.949-6.949 7.385 7.385 0 116.949 6.95" clip-rule="evenodd"/><mask id="nimiq-duotone-crypto-currencies-btc-usdc-m7xr39" width="18" height="18" x="7" y="-2" maskUnits="userSpaceOnUse" style="mask-type:luminance"><path fill="#fff" d="M24.758-1.108H7.773v16.985h16.985z"/><path fill="#000" fill-rule="evenodd" d="M15.842 14.757a7.94 7.94 0 00-6.949-6.949 7.385 7.385 0 116.949 6.95" clip-rule="evenodd"/></mask><g mask="url(#nimiq-duotone-crypto-currencies-btc-usdc-m7xr39)"><path fill="#fff" d="m15.842 14.757-1.1.13c.062.533.5.945 1.036.976zM8.893 7.808l-1.106.064c.031.537.443.974.977 1.037zm8.049 6.82a9.05 9.05 0 00-7.92-7.92l-.258 2.2a6.834 6.834 0 015.978 5.978zM9.999 7.745a6.3 6.3 0 01.869-3.564L8.963 3.05a8.5 8.5 0 00-1.176 4.822zm.869-3.564a6.3 6.3 0 012.79-2.506l-.92-2.016A8.5 8.5 0 008.964 3.05zm2.79-2.506a6.3 6.3 0 013.722-.468l.394-2.18a8.5 8.5 0 00-5.036.632zm3.722-.468a6.3 6.3 0 013.324 1.739l1.566-1.567a8.5 8.5 0 00-4.496-2.352zm3.324 1.739a6.3 6.3 0 011.739 3.323l2.18-.393a8.5 8.5 0 00-2.353-4.497zm1.739 3.323a6.3 6.3 0 01-.467 3.722l2.015.92a8.5 8.5 0 00.632-5.035zm-.467 3.722a6.3 6.3 0 01-2.506 2.79l1.131 1.906a8.5 8.5 0 003.39-3.776zm-2.506 2.79a6.3 6.3 0 01-3.564.87l-.128 2.212a8.5 8.5 0 004.823-1.176z"/></g><path fill="#fff" d="M14.7 11.716c-2.393-.866-3.62-3.558-2.731-5.94A4.56 4.56 0 0114.7 3.02c.122-.062.184-.155.184-.31v-.432c0-.123-.062-.216-.184-.247-.031 0-.093 0-.123.03-2.916.93-4.51 4.054-3.59 6.994a5.6 5.6 0 001.357 2.251c.625.63 1.39 1.1 2.233 1.37.123.061.245 0 .276-.124.03-.031.03-.062.03-.124v-.433c0-.093-.091-.217-.183-.279m3.253-9.653c-.123-.062-.245 0-.276.124-.03.03-.03.062-.03.124v.432c0 .123.091.247.183.309 2.394.866 3.621 3.558 2.732 5.941a4.56 4.56 0 01-2.732 2.755c-.122.062-.184.155-.184.31v.433c0 .124.062.217.184.248.031 0 .092 0 .123-.031 2.915-.93 4.51-4.055 3.591-6.995a5.6 5.6 0 00-1.356-2.264 5.56 5.56 0 00-2.235-1.386"/><path fill="#fff" d="M18.11 8.527c0-1.126-.578-1.512-1.735-1.673-.826-.129-.992-.386-.992-.837s.276-.74.827-.74c.495 0 .771.193.909.676q.022.07.075.116a.2.2 0 00.118.045h.44q.039 0 .075-.016a.2.2 0 00.063-.049.2.2 0 00.042-.073.3.3 0 00.013-.087v-.033a1.7 1.7 0 00-.428-.905 1.3 1.3 0 00-.811-.414v-.772c0-.128-.083-.225-.22-.257h-.414c-.11 0-.193.096-.22.257v.74c-.827.129-1.35.772-1.35 1.577 0 1.061.55 1.48 1.707 1.64.772.161 1.02.354 1.02.87 0 .514-.386.868-.91.868-.715 0-.964-.354-1.046-.837-.028-.128-.11-.193-.193-.193h-.468a.2.2 0 00-.074.016.2.2 0 00-.063.049.2.2 0 00-.042.073.3.3 0 00-.013.087v.033c.11.804.55 1.383 1.46 1.544v.772c0 .129.083.225.221.258h.413c.11 0 .193-.097.22-.258v-.772c.827-.16 1.378-.837 1.378-1.706z"/><path fill="#fff" stroke="currentColor" stroke-linecap="round" stroke-linejoin="round" stroke-width="1.125" d="M7.958 23.077a7.385 7.385 0 100-14.77 7.385 7.385 0 000 14.77"/><path stroke="currentColor" stroke-linecap="round" stroke-linejoin="round" stroke-width="1.125" d="M9.964 14.172a1.63 1.63 0 01-1.63 1.63H6.296v-3.26h2.038a1.63 1.63 0 011.63 1.63m0 3.262a1.63 1.63 0 01-1.63 1.63H6.296v-3.26h2.038a1.63 1.63 0 011.63 1.63m-2.257-5.988v.847m0 6.77v.846"/></g></g><defs><clipPath id="nimiq-duotone-crypto-currencies-btc-usdc-m7xr39"><path fill="#fff" d="M0 0h24v23.631H0z"/></clipPath></defs></g></svg>