<svg xmlns="http://www.w3.org/2000/svg" viewBox="0 0 24 24"><g fill="none"><path fill="#fff" stroke="currentColor" stroke-linecap="round" stroke-linejoin="round" stroke-width="1.2" d="m22.808 11.1-4.605-7.762a1.85 1.85 0 00-1.598-.9h-9.21c-.645 0-1.26.33-1.598.9L1.192 11.1a1.71 1.71 0 000 1.8l4.605 7.763a1.85 1.85 0 001.598.9h9.21c.645 0 1.26-.33 1.598-.9l4.605-7.763c.337-.57.337-1.23 0-1.8"/><path fill="currentColor" d="m18.96 11.4-2.963-5.175a1.19 1.19 0 00-1.03-.6h-5.93c-.412 0-.81.218-1.027.6L5.044 11.4a1.19 1.19 0 000 1.2l2.962 5.175c.221.383.615.6 1.031.6h5.926c.412 0 .81-.218 1.027-.6l2.966-5.175a1.17 1.17 0 000-1.2z" opacity=".4"/></g></svg>