<svg xmlns="http://www.w3.org/2000/svg" viewBox="0 0 26 21"><g fill="none" stroke="currentColor" stroke-linecap="round" stroke-linejoin="round" stroke-width="1.3"><path d="m8.027 20.042-.01-.01a4.89 4.89 0 00-6.42-2.575c-.337.13-.641.315-.934.521"/><path d="M17.848.663a2.851 2.851 0 100 5.702 2.851 2.851 0 000-5.702m-9.925 0a2.851 2.851 0 100 5.702 2.851 2.851 0 000-5.702" opacity=".7"/><path d="M17.771 20.041h-.01a4.873 4.873 0 016.408-2.574c.326.13.63.315.924.521"/><path d="M14.997 9.298c.293-.207.597-.391.923-.522a4.875 4.875 0 015.968 1.759M11.303 9.298a4.6 4.6 0 00-.924-.522 4.875 4.875 0 00-6.001 1.809" opacity=".7"/><path d="M12.904 8.933a3.666 3.666 0 100 7.332 3.666 3.666 0 000-7.332m5.122 11.405a6.59 6.59 0 00-9.277-.978 6 6 0 00-.977.967m-4.243-9.766a2.851 2.851 0 100 5.703 2.851 2.851 0 000-5.703m18.745 0a2.851 2.851 0 100 5.702 2.851 2.851 0 000-5.702"/></g></svg>