<svg xmlns="http://www.w3.org/2000/svg" viewBox="0 0 24 24"><defs><path id="nimiq-duotone-cash-register-lr6icz" fill="#fff" d="M0 0h24v24H0z"/></defs><g fill="none"><g clip-path="url(#nimiq-duotone-cash-register-lr6icz)"><mask id="nimiq-duotone-cash-register-lr6icz" width="24" height="24" x="0" y="0" maskUnits="userSpaceOnUse" style="mask-type:luminance"><use href="#nimiq-duotone-cash-register-lr6icz"/></mask><g mask="url(#nimiq-duotone-cash-register-lr6icz)"><path stroke="currentColor" stroke-linecap="round" stroke-miterlimit="10" stroke-width="1.2" d="M22.688 17.438H1.313c-.413 0-.75.352-.75.787v4.425c0 .435.337.788.75.788h21.375c.412 0 .75-.353.75-.788v-4.425c0-.435-.338-.788-.75-.788Z"/><path stroke="currentColor" stroke-linecap="round" stroke-miterlimit="10" stroke-width="1.2" d="M20.434 8.438H3.562c-.412 0-.753.352-.753.787v7.425c0 .435.337.788.753.788h16.876c.412 0 .753-.353.753-.788V9.225c0-.435-.337-.787-.753-.787z"/><path stroke="currentColor" stroke-linecap="round" stroke-miterlimit="10" stroke-width="1.2" d="M17.055 11.063H14.07a1.155 1.155 0 00-1.133 1.173v1.403a1.155 1.155 0 001.133 1.174h2.985c.626 0 1.133-.526 1.133-1.174v-1.403a1.155 1.155 0 00-1.133-1.174Z"/><path fill="currentColor" d="M6.188 13.875a.938.938 0 100-1.875.938.938 0 000 1.875"/><path fill="currentColor" d="M11.25 8.813a.375.375 0 01-.375-.375V.518a.375.375 0 01.488-.357l1.563.503a.75.75 0 00.544-.03l1.192-.559a.38.38 0 01.3 0l1.347.563a.75.75 0 00.532.018L18.255.18a.375.375 0 01.495.356v7.902a.375.375 0 01-.375.37H11.25z" opacity=".4"/></g></g><defs><clipPath id="nimiq-duotone-cash-register-lr6icz"><use href="#nimiq-duotone-cash-register-lr6icz"/></clipPath></defs></g></svg>