<svg xmlns="http://www.w3.org/2000/svg" viewBox="0 0 24 24"><g fill="none"><g clip-path="url(#nimiq-duotone-credit-card-3dumto)"><mask id="nimiq-duotone-credit-card-3dumto" width="24" height="15" x="0" y="5" maskUnits="userSpaceOnUse" style="mask-type:luminance"><path fill="#fff" d="M22.546 5H1.454C.65 5 0 5.651 0 6.455V18.09c0 .803.651 1.454 1.455 1.454h21.09c.804 0 1.455-.65 1.455-1.454V6.455C24 5.65 23.349 5 22.546 5"/></mask><g mask="url(#nimiq-duotone-credit-card-3dumto)"><path fill="url(#nimiq-duotone-credit-card-3dumto)" fill-opacity=".6" d="M0 16.273h24v1.818a1.454 1.454 0 01-1.454 1.454H1.454A1.454 1.454 0 010 18.091z"/><path fill="url(#nimiq-duotone-credit-card-3dumto)" d="M0 16.273h24v1.818a1.454 1.454 0 01-1.454 1.454H1.454A1.454 1.454 0 010 18.091z"/><path fill="url(#nimiq-duotone-credit-card-3dumto)" fill-rule="evenodd" d="M23.749 5.637c.164.241.251.526.251.818v9.818H0V6.455A1.455 1.455 0 011.442 5h21.104a1.45 1.45 0 011.203.637M2.545 8.273a.364.364 0 00-.363.363v2.182a.364.364 0 00.363.364h2.182a.364.364 0 00.364-.364V8.636a.364.364 0 00-.364-.363z" clip-rule="evenodd"/></g></g><defs><radialGradient id="nimiq-duotone-credit-card-3dumto" cx="0" cy="0" r="1" gradientTransform="matrix(13.49996 2.39234 -.78458 4.4274 3 16.755)" gradientUnits="userSpaceOnUse"><stop stop-color="currentColor"/><stop offset="1" stop-color="currentColor" stop-opacity=".62"/></radialGradient><radialGradient id="nimiq-duotone-credit-card-3dumto" cx="0" cy="0" r="1" gradientTransform="matrix(13.49996 2.39234 -.78458 4.4274 3 16.755)" gradientUnits="userSpaceOnUse"><stop stop-color="currentColor"/><stop offset="1" stop-color="currentColor" stop-opacity=".62"/></radialGradient><radialGradient id="nimiq-duotone-credit-card-3dumto" cx="0" cy="0" r="1" gradientTransform="rotate(25.303 -11.118 2.496)scale(26.4945 20.9125)" gradientUnits="userSpaceOnUse"><stop stop-color="currentColor" stop-opacity=".6"/><stop offset="1" stop-color="currentColor" stop-opacity=".1"/></radialGradient><clipPath id="nimiq-duotone-credit-card-3dumto"><path fill="#fff" d="M0 0h24v24H0z"/></clipPath></defs></g></svg>