<svg xmlns="http://www.w3.org/2000/svg" viewBox="0 0 24 19"><g fill="none"><g stroke="currentColor" clip-path="url(#nimiq-duotone-gamepad-nwaqr5)"><path stroke-linecap="round" stroke-width=".6" d="M6.417 8.535v3.05m1.525-1.526h-3.05"/><path stroke-linecap="round" stroke-linejoin="round" stroke-width=".6" d="M14.437 8.513a.13.13 0 01.112-.001.16.16 0 01.08.087.18.18 0 01.002.125.16.16 0 01-.079.09.134.134 0 01-.16-.034.17.17 0 01-.044-.115.18.18 0 01.042-.116.2.2 0 01.047-.036m0 2.675a.14.14 0 01.114-.004q.028.012.05.035a.2.2 0 01.033.054.18.18 0 010 .127.2.2 0 01-.033.053.2.2 0 01-.049.036.13.13 0 01-.11-.002.16.16 0 01-.079-.086.18.18 0 01-.002-.123.16.16 0 01.076-.09m1.353-1.337a.135.135 0 01.165.03.2.2 0 01.033.053.18.18 0 010 .129.2.2 0 01-.033.053.2.2 0 01-.05.035.13.13 0 01-.11-.002.16.16 0 01-.077-.087.18.18 0 01-.002-.122.16.16 0 01.074-.09m-2.706 0a.135.135 0 01.165.03.2.2 0 01.033.053.18.18 0 010 .129.2.2 0 01-.033.053.2.2 0 01-.05.035.13.13 0 01-.11-.002.16.16 0 01-.077-.087.18.18 0 01-.002-.122.16.16 0 01.074-.09"/><path stroke-width=".6" d="M6.03 15.129a20 20 0 01-2.268 2.252c-1.09.926-2.773.321-3.025-1.087C.5 14.968.585 13.834.874 12.3c.538-2.86 1.245-5.132 3.385-6.64 1.283-.904 2.899-.444 4.24.127a4.23 4.23 0 003.36.003c1.351-.572 2.99-1.041 4.282-.13 2.14 1.508 2.848 3.78 3.385 6.64.289 1.535.374 2.67.137 3.996-.252 1.407-1.935 2.012-3.024 1.085a20 20 0 01-2.27-2.251c-1.685-1.965-6.738-1.866-8.338 0Z"/><path fill="currentColor" stroke-width=".056" d="M20.244 3.263h-1.518a.25.25 0 000 .498h1.076L18.62 5.103a.305.305 0 00.23.507h1.506a.242.242 0 10.003-.485l-1.07-.01 1.184-1.345a.306.306 0 00-.229-.507Zm3.151-3h-1.771a.278.278 0 000 .556h1.33l-1.54 2.12a.36.36 0 00.292.571h1.826a.278.278 0 100-.556h-1.395L23.683.829a.357.357 0 00-.288-.566Z"/></g><defs><clipPath id="nimiq-duotone-gamepad-nwaqr5"><path fill="#fff" d="M0 0h24v18.3H0z"/></clipPath></defs></g></svg>