<svg xmlns="http://www.w3.org/2000/svg" viewBox="0 0 24 24"><g fill="none"><g clip-path="url(#nimiq-duotone-magnifying-glass-kx9a9s)"><path fill="currentColor" d="M12.188 16.5a4.313 4.313 0 100-8.625 4.313 4.313 0 000 8.625" opacity=".4"/><path stroke="currentColor" stroke-linecap="round" stroke-linejoin="round" stroke-width="1.125" d="M12.188 19.346a7.159 7.159 0 10-.001-14.317 7.159 7.159 0 000 14.317"/><path stroke="currentColor" stroke-linecap="round" stroke-linejoin="round" stroke-width="1.125" d="M21.824 17.625a11 11 0 001.426-5.437c0-6.11-4.953-11.063-11.062-11.063-6.11 0-11.063 4.953-11.063 11.063 0 6.109 4.953 11.062 11.063 11.062 1.976 0 3.831-.518 5.437-1.427" opacity=".4"/><path stroke="currentColor" stroke-linecap="round" stroke-linejoin="round" stroke-width="1.125" d="m22.5 22.5-5.25-5.25"/></g><defs><clipPath id="nimiq-duotone-magnifying-glass-kx9a9s"><path fill="#fff" d="M0 0h24v24H0z"/></clipPath></defs></g></svg>