<svg xmlns="http://www.w3.org/2000/svg" viewBox="0 0 25 24"><g fill="none"><path fill="currentColor" fill-rule="evenodd" d="M8.7 2.248v6.087h6.104c.133 0 .266.023.392.054a.57.57 0 01.202-.496q.414-.348.743-.777a8.3 8.3 0 001.01-1.687h-3.437a.572.572 0 110-1.143H16v-.857a.572.572 0 011.143 0v.857h2.285a.572.572 0 110 1.143h-1.032l-.008.011q-.199.487-.441.952a10 10 0 01-.66 1.098 3.17 3.17 0 002.18 1.081.573.573 0 11-.076 1.143 4.32 4.32 0 01-2.839-1.333 7 7 0 01-.419.392.6.6 0 01-.144.088c.298.317.46.738.453 1.173v1.985a.52.52 0 00.156.37l2.922 2.91a.51.51 0 00.869-.37v-2.106a.526.526 0 01.525-.522h1.657a1.67 1.67 0 001.638-1.695V2.248a1.67 1.67 0 00-1.638-1.7H10.343a1.67 1.67 0 00-1.638 1.7z" clip-rule="evenodd" opacity=".4"/><path stroke="currentColor" stroke-linecap="round" stroke-miterlimit="10" stroke-width="1.13" d="M16.442 10.034v1.985l-.008 2.076v4.29a1.67 1.67 0 01-1.638 1.695h-1.66a.525.525 0 00-.523.522v2.107a.51.51 0 01-.868.37l-2.91-2.847a.54.54 0 00-.37-.152H2.57a1.67 1.67 0 01-1.638-1.691v-8.355A1.67 1.67 0 012.57 8.335H14.8a1.67 1.67 0 011.637 1.7z"/><path stroke="currentColor" stroke-linecap="round" stroke-linejoin="round" stroke-width="1.13" d="M6.857 16.952v-3.428a1.714 1.714 0 113.429 0v3.428m-3.429-1.714h3.429"/></g></svg>