<svg xmlns="http://www.w3.org/2000/svg" viewBox="0 0 24 17"><g fill="none"><g fill="currentColor" clip-path="url(#nimiq-duotone-envelope-pv5gsg)"><path d="m23.314.314.229.2a.8.8 0 00-.229-.2"/><path d="m23.543.514-.229-.2A1.5 1.5 0 0022.371 0H1.63c-.143 0-.258 0-.343.029L1 .114C.429.343 0 .943 0 1.63v13.314c0 .886.714 1.628 1.629 1.628H22.4c.886 0 1.629-.714 1.629-1.628V1.629a1.74 1.74 0 00-.486-1.115m.171 14.429c0 .743-.6 1.343-1.343 1.343H1.63c-.743 0-1.343-.6-1.343-1.343V1.629c0-.543.314-1 .771-1.2.086-.058.172-.086.257-.115.115-.028.2-.028.315-.028H22.4c.343 0 .629.114.886.343.057.057.143.142.2.228.143.229.228.486.228.772z"/><path d="M18.457 12.657s.029 0 .029-.028a4 4 0 00.942-.543.473.473 0 00.086-.686c-.171-.229-.457-.257-.686-.086a4 4 0 01-.742.429h-.029c-.257.114-.543.171-.828.229a.504.504 0 00-.43.542.504.504 0 00.544.429c.428-.057.8-.143 1.114-.286m-2.828.029a.56.56 0 00.285-.286c.086-.257-.028-.543-.285-.629-.258-.114-.515-.228-.743-.4-.229-.142-.515-.114-.686.115-.143.228-.114.514.114.685.286.229.629.4.972.515.085.057.228.057.343 0m4.914-2.057a.56.56 0 00.257-.258c.143-.342.257-.685.314-1.057.057-.257-.143-.514-.4-.571a.53.53 0 00-.571.4 4 4 0 01-.257.828.49.49 0 00.257.658.5.5 0 00.4 0m-7.029.143s.029 0 .029-.03c.257-.113.343-.4.228-.656-.028-.057-.057-.143-.085-.2a2.4 2.4 0 01-.172-.6.486.486 0 00-.571-.372.486.486 0 00-.372.572c.058.257.143.514.229.771a1 1 0 00.114.257c.086.258.372.343.6.258M20.657 7.8c.229-.086.372-.371.286-.6-.029-.086-.057-.143-.086-.229a6 6 0 00-.4-.742.5.5 0 00-.686-.143.5.5 0 00-.143.685c.115.172.229.372.315.6.028.058.057.115.057.172.114.2.4.343.657.257m-7.371.114a.62.62 0 00.285-.314q.129-.429.343-.771a.47.47 0 00-.171-.658c-.229-.142-.543-.057-.657.172-.2.314-.343.628-.457 1-.086.257.057.543.314.6.143.028.257.028.343-.029M18.8 5.63a.5.5 0 00.257-.229c.114-.229.029-.543-.2-.657a4 4 0 00-1.029-.372.51.51 0 00-.6.343.51.51 0 00.343.6c.286.057.543.172.8.286a.46.46 0 00.429.029m-3.714.057c.028 0 .028-.029.057-.029.257-.143.514-.257.771-.314s.4-.343.343-.6a.51.51 0 00-.6-.343c-.343.114-.686.229-1 .4-.229.143-.314.429-.171.657.114.257.371.314.6.229"/><path fill-rule="evenodd" d="M23.457.629c-.2.942-.514 1.885-.971 2.8-.543 1.085-1.2 2.028-2 2.828.057.086.085.172.142.229a11.4 11.4 0 002.086-2.943 11.5 11.5 0 00.943-2.686.8.8 0 00-.2-.228M12.6 9.714a11 11 0 01-5.314-1.171A11.31 11.31 0 011.114.314L.857.4c.629 3.514 2.857 6.686 6.286 8.371a11.54 11.54 0 005.514 1.2c0-.057-.028-.142-.057-.257" clip-rule="evenodd" opacity=".4"/></g><defs><clipPath id="nimiq-duotone-envelope-pv5gsg"><path fill="#fff" d="M0 0h24v16.543H0z"/></clipPath></defs></g></svg>