<svg xmlns="http://www.w3.org/2000/svg" viewBox="0 0 24 24"><g fill="none"><g clip-path="url(#nimiq-duotone-column-chart-m8odex)"><path fill="currentColor" d="M22.545 5h-8.363c-.804 0-1.455.651-1.455 1.454v11.637c0 .803.651 1.454 1.455 1.454h8.363c.804 0 1.455-.65 1.455-1.454V6.454C24 5.651 23.349 5 22.545 5"/><path fill="url(#nimiq-duotone-column-chart-m8odex)" d="M9.818 14.818H1.455C.65 14.818 0 15.47 0 16.273v1.818c0 .803.651 1.454 1.455 1.454h8.363c.803 0 1.455-.65 1.455-1.454v-1.818c0-.804-.652-1.455-1.455-1.455"/></g><defs><radialGradient id="nimiq-duotone-column-chart-m8odex" cx="0" cy="0" r="1" gradientTransform="rotate(22.884 -36.597 7.407)scale(12.2116 8.93696)" gradientUnits="userSpaceOnUse"><stop stop-color="currentColor" stop-opacity=".6"/><stop offset="1" stop-color="currentColor" stop-opacity=".1"/></radialGradient><clipPath id="nimiq-duotone-column-chart-m8odex"><path fill="#fff" d="M0 0h24v24H0z"/></clipPath></defs></g></svg>