<svg xmlns="http://www.w3.org/2000/svg" viewBox="0 0 24 24"><g fill="none"><g clip-path="url(#nimiq-duotone-dashboard-bxj8ik)"><mask id="nimiq-duotone-dashboard-bxj8ik" width="24" height="24" x="0" y="0" maskUnits="userSpaceOnUse" style="mask-type:luminance"><path fill="#fff" d="M0 24h24V0H0z"/></mask><g mask="url(#nimiq-duotone-dashboard-bxj8ik)"><path fill="currentColor" d="M.375 6.75H7.5v16.5H.375z" opacity=".4"/><path stroke="currentColor" stroke-linecap="round" stroke-linejoin="round" stroke-width="1.2" d="M22.688.563H1.313a.75.75 0 00-.75.75v21.375c0 .414.335.75.75.75h21.375a.75.75 0 00.75-.75V1.313a.75.75 0 00-.75-.75"/><path fill="currentColor" d="M3.75 4.875a1.125 1.125 0 100-2.25 1.125 1.125 0 000 2.25m3 0a1.125 1.125 0 100-2.25 1.125 1.125 0 000 2.25m3 0a1.125 1.125 0 100-2.25 1.125 1.125 0 000 2.25" opacity=".4"/><path stroke="currentColor" stroke-linecap="round" stroke-width="1.2" d="M.75 6.938h22.5m-15.562.187v16.5"/></g></g><defs><clipPath id="nimiq-duotone-dashboard-bxj8ik"><path fill="#fff" d="M0 0h24v24H0z"/></clipPath></defs></g></svg>