<svg xmlns="http://www.w3.org/2000/svg" viewBox="0 0 18 18"><g fill="none"><path fill="url(#nimiq-logos-nimiq-white-vertical-y01xmj)" d="M13.336 3.995 11.273.413A.83.83 0 0010.56 0H6.434a.82.82 0 00-.714.413L3.657 3.995a.83.83 0 000 .826L5.72 8.4c.147.256.42.414.714.414h4.125a.82.82 0 00.714-.413l2.063-3.581a.83.83 0 000-.826"/><path fill="#fff" d="M2.548 13.154H3.2v3.797h-.502L.649 14.303v2.648H0v-3.797h.5l2.048 2.648zm1.949 3.797v-3.797h.699v3.797zm5.145-3.797h.55v3.797h-.6v-2.348L8.568 16.95h-.45l-1.024-2.348v2.348h-.6v-3.797h.55l1.3 2.973zm1.849 3.797v-3.797h.7v3.797zm5.372-.865a1.58 1.58 0 01-.802.758c.034.076.188.288.305.41.117.121.24.245.396.371l-.475.375a3 3 0 01-.481-.438 3.2 3.2 0 01-.407-.566c-.029.002-.11.005-.16.005-.388 0-.71-.08-.989-.236a1.56 1.56 0 01-.639-.68 2.35 2.35 0 01-.22-1.033c0-.405.075-.737.223-1.033a1.6 1.6 0 01.642-.68q.416-.235.983-.235.57 0 .988.236.42.236.639.68c.148.295.22.627.22 1.032 0 .406-.088.766-.223 1.034m-2.471.003q.303.362.846.362.545 0 .846-.363c.202-.241.303-.583.303-1.036 0-.448-.1-.798-.303-1.038q-.302-.36-.846-.36t-.846.357c-.202.239-.303.59-.303 1.041 0 .452.101.794.303 1.037"/><defs><radialGradient id="nimiq-logos-nimiq-white-vertical-y01xmj" cx="0" cy="0" r="1" gradientTransform="matrix(9.90136 0 0 9.91882 10.994 8.7)" gradientUnits="userSpaceOnUse"><stop stop-color="#EC991C"/><stop offset="1" stop-color="#E9B213"/></radialGradient></defs></g></svg>