<svg xmlns="http://www.w3.org/2000/svg" viewBox="0 0 154 16"><g fill="none"><path fill="#fff" d="M64.992 11V2.98h2.537q1.32 0 2.23.467A3.05 3.05 0 0171.134 4.8q.477.886.478 2.184 0 1.296-.478 2.195a3.1 3.1 0 01-1.377 1.365q-.91.455-2.23.455zm.706-.626h1.774q1.717 0 2.56-.841.84-.855.841-2.548 0-1.707-.842-2.549-.84-.84-2.559-.841h-1.774zm10.047.717q-1.297 0-2.06-.773-.75-.774-.75-2.15 0-.91.33-1.57.34-.66.944-1.024.603-.375 1.399-.375.762 0 1.285.33.524.318.808.92.284.592.284 1.411v.319h-4.55v-.5h4.118l-.193.147q0-.966-.444-1.513-.444-.557-1.32-.557-.932 0-1.455.648-.524.638-.524 1.695v.08q0 1.137.558 1.729.569.591 1.58.591.524 0 .98-.159.453-.159.875-.546l.284.512q-.363.376-.944.58a3.6 3.6 0 01-1.206.205M81.092 11 78.67 5.301h.774l2.161 5.267h-.296L83.492 5.3h.74L81.809 11zm6.672.091q-1.296 0-2.059-.773-.75-.774-.75-2.15 0-.91.33-1.57.34-.66.943-1.024.603-.375 1.4-.375.762 0 1.285.33.523.318.808.92.284.592.284 1.411v.319h-4.55v-.5h4.118l-.194.147q0-.966-.443-1.513-.444-.557-1.32-.557-.933 0-1.456.648-.523.638-.523 1.695v.08q0 1.137.557 1.729.57.591 1.581.591.524 0 .979-.159t.875-.546l.285.512q-.365.376-.944.58a3.6 3.6 0 01-1.206.205m3.73-.091V2.628h.695V11zm4.841.091q-.807 0-1.399-.353a2.34 2.34 0 01-.899-1.012q-.318-.66-.318-1.581 0-.91.319-1.57.318-.66.898-1.012.59-.364 1.4-.364.795 0 1.376.364.59.352.91 1.012.33.66.33 1.57 0 .921-.33 1.581-.32.66-.91 1.012-.58.354-1.377.353m0-.591q.866 0 1.388-.603.523-.603.523-1.752t-.523-1.752-1.388-.603q-.876 0-1.399.603-.512.603-.512 1.752t.512 1.752q.523.602 1.4.602m4.135 2.957V6.575a9 9 0 00-.091-1.274h.683l.114 1.422h-.137a2 2 0 01.751-1.115q.558-.41 1.354-.41.773 0 1.331.365.568.352.887 1.012.318.649.318 1.57t-.318 1.581q-.308.66-.876 1.012-.569.354-1.342.353-.786 0-1.354-.398a2 2 0 01-.751-1.115h.125v3.879zm2.583-2.958q.876 0 1.399-.602.523-.603.523-1.752t-.523-1.752-1.399-.603q-.865 0-1.388.603-.512.603-.512 1.752t.512 1.752q.523.602 1.388.602m6.584.592q-1.297 0-2.059-.773-.751-.774-.751-2.15 0-.91.33-1.57a2.5 2.5 0 01.944-1.024q.603-.375 1.399-.375.762 0 1.286.33.523.318.807.92.285.592.285 1.411v.319h-4.55v-.5h4.118l-.194.147q0-.966-.443-1.513-.444-.557-1.32-.557-.933 0-1.456.648-.523.638-.523 1.695v.08q0 1.137.557 1.729.568.591 1.581.591.523 0 .979-.159t.875-.546l.285.512a2.4 2.4 0 01-.944.58 3.6 3.6 0 01-1.206.205m3.719-.091V6.632q0-.33-.023-.66a6 6 0 00-.056-.671h.682l.091 1.308-.136.012q.113-.478.409-.785.296-.32.683-.478.386-.16.796-.16.147 0 .273.023.136.012.25.046l-.023.626a1.2 1.2 0 00-.273-.057 4 4 0 00-.295-.012q-.512 0-.899.25-.375.25-.58.638-.205.386-.205.784V11zm10.369.091q-1.183 0-2.013-.49a3.2 3.2 0 01-1.252-1.421q-.432-.921-.432-2.195 0-1.275.432-2.184.432-.922 1.252-1.411.83-.5 2.013-.5.864 0 1.536.272.671.263 1.171.785l-.296.57q-.557-.513-1.114-.74-.558-.24-1.297-.24-1.444 0-2.196.91-.75.9-.75 2.538t.75 2.548q.752.91 2.196.91.74 0 1.297-.228a4 4 0 001.114-.75l.296.568a3.3 3.3 0 01-1.183.796q-.67.262-1.524.262m6.33 0q-1.297 0-2.059-.773-.751-.774-.751-2.15 0-.91.33-1.57.34-.66.944-1.024.603-.375 1.399-.375.763 0 1.285.33.523.318.808.92.285.592.284 1.411v.319h-4.55v-.5h4.118l-.193.147q0-.966-.444-1.513-.444-.557-1.319-.557-.934 0-1.456.648-.524.638-.524 1.695v.08q0 1.137.558 1.729.569.591 1.581.591.524 0 .978-.159.455-.159.876-.546l.284.512q-.363.376-.944.58a3.6 3.6 0 01-1.205.205m3.73-.091V6.575q0-.307-.023-.626a9 9 0 00-.068-.648h.683l.102 1.308h-.136q.25-.683.807-1.046a2.3 2.3 0 011.297-.364q1.012 0 1.524.534.524.535.524 1.672V11h-.694V7.462q0-.876-.353-1.262-.352-.399-1.092-.398-.864 0-1.376.523-.501.523-.501 1.41V11zm8.419.091q-.762 0-1.171-.455-.398-.455-.398-1.4V5.859h-1.138v-.557h1.138V3.708l.693-.227v1.82h1.684v.557h-1.684v3.276q0 .717.228 1.036.227.318.728.318.227 0 .398-.045.182-.045.307-.103v.614a1.6 1.6 0 01-.352.091 2 2 0 01-.433.046m4.38 0q-1.296 0-2.059-.773-.75-.774-.751-2.15 0-.91.33-1.57.342-.66.944-1.024.603-.375 1.4-.375.762 0 1.285.33.523.318.808.92.284.592.284 1.411v.319h-4.55v-.5h4.118l-.194.147q0-.966-.443-1.513-.444-.557-1.32-.557-.933 0-1.456.648-.523.638-.523 1.695v.08q0 1.137.557 1.729.57.591 1.582.591.522 0 .978-.159a2.55 2.55 0 00.876-.546l.284.512q-.364.376-.944.58a3.6 3.6 0 01-1.206.205m3.719-.091V6.632q0-.33-.022-.66a7 7 0 00-.057-.671h.682l.091 1.308-.136.012a1.66 1.66 0 01.409-.785 1.9 1.9 0 01.683-.478q.387-.16.796-.16.148 0 .273.023.137.012.25.046l-.022.626a1.2 1.2 0 00-.273-.057 4 4 0 00-.296-.012 1.6 1.6 0 00-.899.25q-.375.25-.58.638-.204.386-.205.784V11zM26.309 3.303h1.377v8.037h-1.06l-4.333-5.605v5.605H20.92V3.303h1.056l4.333 5.605zm4.121 8.037V3.303h1.479v8.037zm10.883-8.037h1.162v8.037h-1.268V6.37l-2.166 4.97h-.951l-2.166-4.97v4.97h-1.268V3.303h1.162l2.747 6.292zm3.909 8.037V3.303h1.48v8.037zm11.362-1.831a3.35 3.35 0 01-1.695 1.605c.07.16.397.61.644.867.248.258.507.52.837.787l-1.004.793a6 6 0 01-1.018-.926 6.7 6.7 0 01-.86-1.2 7 7 0 01-.34.011c-.819 0-1.501-.167-2.09-.499a3.3 3.3 0 01-1.351-1.438c-.285-.57-.47-1.328-.47-2.187s.16-1.561.474-2.187a3.34 3.34 0 011.357-1.439c.59-.334 1.278-.499 2.08-.499.8 0 1.5.167 2.09.5q.884.5 1.35 1.438c.313.626.469 1.328.469 2.187s-.188 1.62-.473 2.187m-5.227.006q.64.768 1.79.768 1.152 0 1.79-.768c.427-.514.64-1.237.64-2.193 0-.95-.213-1.69-.64-2.198q-.64-.762-1.79-.763-1.152-.001-1.79.757c-.426.505-.64 1.248-.64 2.204s.214 1.68.64 2.193"/><path fill="url(#nimiq-logos-developer-center-white-horizontal-8czbuj)" d="m15.045 6.679-3.17-5.5a1.27 1.27 0 00-1.099-.634h-6.34c-.452 0-.87.241-1.096.635L.17 6.679a1.27 1.27 0 000 1.27l3.17 5.498c.226.394.644.635 1.096.635h6.34c.452 0 .87-.241 1.097-.635l3.17-5.499c.228-.393.228-.876.002-1.269"/><path stroke="url(#nimiq-logos-developer-center-white-horizontal-8czbuj)" stroke-linecap="round" stroke-linejoin="round" stroke-width="1.285" d="m10.382 5.225 1.023 1.029c.43.432.645.648.645.917 0 .268-.215.485-.645.917l-1.023 1.029M4.823 5.225 3.8 6.254c-.43.432-.644.648-.644.917 0 .268.215.485.644.917l1.023 1.029m3.54-4.785-.76 2.838-.76 2.838"/><defs><radialGradient id="nimiq-logos-developer-center-white-horizontal-8czbuj" cx="0" cy="0" r="1" gradientTransform="matrix(15.2195 0 0 15.2328 11.445 13.906)" gradientUnits="userSpaceOnUse"><stop stop-color="#EC991C"/><stop offset="1" stop-color="#E9B213"/></radialGradient><linearGradient id="nimiq-logos-developer-center-white-horizontal-8czbuj" x1="12.05" x2="3.98" y1="4.055" y2="11.436" gradientUnits="userSpaceOnUse"><stop offset=".19" stop-color="#fff"/><stop offset=".61" stop-color="#fff" stop-opacity=".86"/><stop offset="1" stop-color="#fff" stop-opacity=".6"/></linearGradient></defs></g></svg>