<svg xmlns="http://www.w3.org/2000/svg" viewBox="0 0 18 18"><g fill="none"><path fill="url(#nimiq-logos-nimiq-vertical-mono-ei4ga9)" d="M13.336 3.995 11.273.413A.82.82 0 0010.56 0H6.434a.82.82 0 00-.714.413L3.657 3.995a.83.83 0 000 .826L5.72 8.4c.147.256.42.414.714.414h4.125a.82.82 0 00.714-.413l2.063-3.581a.83.83 0 000-.826"/><path fill="currentColor" d="M2.548 13.154H3.2v3.797h-.502L.649 14.303v2.648H0v-3.797h.5l2.048 2.648zm1.948 3.797v-3.797h.7v3.797zm5.146-3.797h.55v3.797h-.6v-2.348L8.568 16.95h-.45l-1.024-2.348v2.348h-.6v-3.797h.55l1.3 2.973zm1.849 3.797v-3.797h.7v3.797zm5.372-.865a1.58 1.58 0 01-.801.758c.033.076.188.288.304.41.117.121.24.245.396.371l-.474.375a3 3 0 01-.482-.438 3.2 3.2 0 01-.407-.566c-.029.002-.11.005-.16.005-.387 0-.71-.08-.989-.236a1.56 1.56 0 01-.638-.68 2.35 2.35 0 01-.221-1.033c0-.405.075-.737.224-1.033a1.6 1.6 0 01.641-.68q.417-.235.983-.235.57 0 .988.236.42.236.639.68c.148.295.22.627.22 1.032 0 .406-.088.766-.223 1.034m-2.471.003q.303.362.846.362.545 0 .847-.363c.201-.241.302-.583.302-1.036 0-.448-.1-.798-.302-1.038q-.303-.36-.847-.36t-.846.357c-.202.239-.303.59-.303 1.041 0 .452.101.794.303 1.037"/><defs><radialGradient id="nimiq-logos-nimiq-vertical-mono-ei4ga9" cx="0" cy="0" r="1" gradientTransform="matrix(9.90136 0 0 9.91882 10.994 8.7)" gradientUnits="userSpaceOnUse"><stop stop-color="currentColor"/><stop offset="1" stop-color="currentColor"/></radialGradient></defs></g></svg>