<svg xmlns="http://www.w3.org/2000/svg" viewBox="0 0 23 18"><g fill="none" fill-rule="evenodd" clip-rule="evenodd"><path fill="#F7931A" d="M17.13 13.675c-2.043 3.279-6.107 5.032-10.129 4.056C2.054 16.529-.958 11.645.277 6.824 1.51 2.002 6.522-.933 11.47.269c4.764 1.157 7.733 5.726 6.849 10.366a.2.2 0 00-.078.051l-2.11 3.021c-.19.278.058.214.058.214zm-3.47-6.12c.191-1.19-.787-1.83-2.124-2.257l.434-1.613-1.06-.245-.422 1.57a48 48 0 00-.849-.185l.426-1.58L9.005 3l-.433 1.612q-.346-.071-.677-.147l.002-.005-1.461-.338-.282 1.048s.786.167.77.178c.428.1.506.362.493.57l-.494 1.839q.045.01.11.032l-.112-.025-.693 2.574c-.053.12-.186.302-.486.233.011.014-.77-.178-.77-.178l-.525 1.124 1.378.32q.237.054.468.11l.287.07-.438 1.631 1.058.245.434-1.615q.434.109.844.204l-.432 1.606 1.059.245.438-1.629c1.807.317 3.165.19 3.737-1.325.46-1.219-.023-1.922-.973-2.381.692-.148 1.213-.57 1.352-1.442m-2.421 3.146c-.301 1.12-2.192.656-3.056.445l-.205-.05.582-2.161q.109.025.261.056c.895.186 2.725.567 2.418 1.71m.327-3.163c-.274 1.017-1.845.628-2.566.45l-.174-.042.527-1.96.218.046c.747.153 2.275.466 1.995 1.506"/><path fill="#7B1AF7" d="M22.01 12.079c.61 2.215-.74 4.493-3.014 5.086-2.273.594-4.61-.721-5.22-2.936-.609-2.216.74-4.493 3.014-5.086 2.274-.594 4.61.72 5.22 2.936m-3.77-1.393-2.11 3.021c-.19.278.058.214.058.214l1.548-.404-.397 1.857c-.065.276.09.327.237.12l2.063-3.023c.193-.264-.055-.2-.055-.2l-1.562.409.414-1.908c.038-.147-.096-.191-.196-.086"/></g></svg>