<svg xmlns="http://www.w3.org/2000/svg" viewBox="0 0 18 18"><g fill="none"><g clip-path="url(#nimiq-logos-usdc-ea4zkl)"><path fill="#2775CA" fill-rule="evenodd" d="M9 18c4.986 0 9-4.014 9-9s-4.014-9-9-9a8.98 8.98 0 00-9 9c0 4.986 4.014 9 9 9m2.475-7.578c0-1.314-.783-1.764-2.358-1.944-1.125-.153-1.35-.45-1.35-.981s.369-.864 1.125-.864c.675 0 1.044.225 1.233.792a.29.29 0 00.26.189h.604a.256.256 0 00.26-.261v-.045a1.875 1.875 0 00-1.682-1.53v-.9c0-.153-.117-.27-.306-.306h-.558c-.153 0-.261.117-.306.306v.855c-1.125.153-1.836.909-1.836 1.845 0 1.233.756 1.719 2.33 1.908 1.045.189 1.387.414 1.387 1.017s-.531 1.008-1.242 1.008c-.972 0-1.314-.414-1.422-.972-.036-.153-.153-.225-.261-.225h-.64a.25.25 0 00-.26.261v.036c.144.936.747 1.611 1.989 1.8v.9c0 .153.108.261.297.306h.558c.153 0 .27-.117.306-.306v-.9c1.125-.189 1.872-.972 1.872-1.989m-6.26 2.808a5.6 5.6 0 001.877 1.134c.108.072.225.225.225.333v.531c0 .072 0 .108-.045.144-.036.153-.18.225-.333.153a6.741 6.741 0 010-12.861c.036-.036.108-.036.153-.036.144.036.225.144.225.297v.522c0 .189-.081.306-.225.378a5.54 5.54 0 00-3.34 3.339 5.58 5.58 0 001.463 6.067m5.513-10.422a.223.223 0 01.333-.144 6.804 6.804 0 014.687 7.038 6.74 6.74 0 01-4.687 5.859c-.036.036-.108.036-.144.036-.153-.036-.225-.144-.225-.297v-.522c0-.189.072-.306.216-.378a5.55 5.55 0 003.339-3.339 5.58 5.58 0 00-3.33-7.2.48.48 0 01-.225-.378v-.522c0-.072 0-.108.036-.153" clip-rule="evenodd"/></g><defs><clipPath id="nimiq-logos-usdc-ea4zkl"><path fill="#fff" d="M0 0h18v18H0z"/></clipPath></defs></g></svg>