<svg xmlns="http://www.w3.org/2000/svg" viewBox="0 0 18 18"><g fill="none"><g fill="#1F2348" fill-rule="evenodd" clip-path="url(#nimiq-logos-super-simple-swap-r591j8)" clip-rule="evenodd"><path d="M.374.656A1.73 1.73 0 012.806.374L8.642 5a1.73 1.73 0 010 2.713l-5.836 4.625a1.73 1.73 0 01-2.15-2.713l4.124-3.27L.656 3.087A1.73 1.73 0 01.374.656m17.251 5.289a1.73 1.73 0 01-.281 2.431l-4.125 3.268 4.125 3.268a1.73 1.73 0 01-2.15 2.713l-5.836-4.624a1.73 1.73 0 010-2.713l5.836-4.625a1.73 1.73 0 012.431.282"/></g><defs><clipPath id="nimiq-logos-super-simple-swap-r591j8"><path fill="#fff" d="M0 0h18v18H0z"/></clipPath></defs></g></svg>