<svg xmlns="http://www.w3.org/2000/svg" viewBox="0 0 18 17"><g fill="none"><mask id="nimiq-logos-shiny-nim-71066k" fill="#fff"><path d="M17.636 6.667a2.62 2.62 0 010 2.666l-3.14 5.334A2.73 2.73 0 0112.14 16H5.86a2.73 2.73 0 01-2.355-1.333L.365 9.333a2.62 2.62 0 010-2.666l3.14-5.334A2.73 2.73 0 015.86 0h6.28c.972 0 1.87.508 2.355 1.333z"/></mask><g filter="url(#nimiq-logos-shiny-nim-71066k)"><path fill="url(#nimiq-logos-shiny-nim-71066k)" fill-opacity=".6" d="M17.636 6.667a2.62 2.62 0 010 2.666l-3.14 5.334A2.73 2.73 0 0112.14 16H5.86a2.73 2.73 0 01-2.355-1.333L.365 9.333a2.62 2.62 0 010-2.666l3.14-5.334A2.73 2.73 0 015.86 0h6.28c.972 0 1.87.508 2.355 1.333z"/><path fill="#1F2348" fill-opacity=".2" d="M17.636 6.667a2.62 2.62 0 010 2.666l-3.14 5.334A2.73 2.73 0 0112.14 16H5.86a2.73 2.73 0 01-2.355-1.333L.365 9.333a2.62 2.62 0 010-2.666l3.14-5.334A2.73 2.73 0 015.86 0h6.28c.972 0 1.87.508 2.355 1.333z"/></g><path stroke="url(#nimiq-logos-shiny-nim-71066k)" stroke-opacity=".3" stroke-width="1.042" d="M17.636 6.667a2.62 2.62 0 010 2.666l-3.14 5.334A2.73 2.73 0 0112.14 16H5.86a2.73 2.73 0 01-2.355-1.333L.365 9.333a2.62 2.62 0 010-2.666l3.14-5.334A2.73 2.73 0 015.86 0h6.28c.972 0 1.87.508 2.355 1.333z" mask="url(#nimiq-logos-shiny-nim-71066k)"/><mask id="nimiq-logos-shiny-nim-71066k" fill="#fff"><path d="M.364 9.333a2.62 2.62 0 010-2.666l3.14-5.334A2.73 2.73 0 015.86 0h6.28c.972 0 1.87.508 2.355 1.333l3.14 5.334a2.62 2.62 0 010 2.666l-3.14 5.334A2.73 2.73 0 0112.14 16H5.86a2.73 2.73 0 01-2.355-1.333z"/></mask><path fill="url(#nimiq-logos-shiny-nim-71066k)" d="M.364 9.333a2.62 2.62 0 010-2.666l3.14-5.334A2.73 2.73 0 015.86 0h6.28c.972 0 1.87.508 2.355 1.333l3.14 5.334a2.62 2.62 0 010 2.666l-3.14 5.334A2.73 2.73 0 0112.14 16H5.86a2.73 2.73 0 01-2.355-1.333z"/><path stroke="url(#nimiq-logos-shiny-nim-71066k)" stroke-opacity=".25" stroke-width="1.26" d="M.364 9.333a2.62 2.62 0 010-2.666l3.14-5.334A2.73 2.73 0 015.86 0h6.28c.972 0 1.87.508 2.355 1.333l3.14 5.334a2.62 2.62 0 010 2.666l-3.14 5.334A2.73 2.73 0 0112.14 16H5.86a2.73 2.73 0 01-2.355-1.333z" mask="url(#nimiq-logos-shiny-nim-71066k)"/><defs><linearGradient id="nimiq-logos-shiny-nim-71066k" x1="1.425" x2="14.269" y1=".6" y2="17.103" gradientUnits="userSpaceOnUse"><stop stop-color="#CCE8FE"/><stop offset=".242" stop-color="#CDA0FF"/><stop offset=".4" stop-color="#8489F5"/><stop offset=".713" stop-color="#CDF1FF"/><stop offset="1" stop-color="#B591E9"/></linearGradient><linearGradient id="nimiq-logos-shiny-nim-71066k" x1="1.425" x2="14.269" y1=".6" y2="17.103" gradientUnits="userSpaceOnUse"><stop stop-color="#CCE8FE"/><stop offset=".242" stop-color="#CDA0FF"/><stop offset=".4" stop-color="#8489F5"/><stop offset=".713" stop-color="#CDF1FF"/><stop offset="1" stop-color="#B591E9"/></linearGradient><linearGradient id="nimiq-logos-shiny-nim-71066k" x1="18" x2="2.764" y1="15.957" y2="2.294" gradientUnits="userSpaceOnUse"><stop stop-color="#79AEE7"/><stop offset=".332" stop-color="#4960A7"/><stop offset="1" stop-color="#1B2030" stop-opacity=".25"/></linearGradient><linearGradient id="nimiq-logos-shiny-nim-71066k" x1="2.159" x2="13.338" y1="15.263" y2="2.898" gradientUnits="userSpaceOnUse"><stop stop-color="#EBF8FC"/><stop offset=".295" stop-color="#7FB8EF"/><stop offset=".576" stop-color="#5142F1"/><stop offset="1" stop-color="#1D1D29"/></linearGradient><filter id="nimiq-logos-shiny-nim-71066k" width="18" height="16.509" x="0" y="0" color-interpolation-filters="sRGB" filterUnits="userSpaceOnUse"><feFlood flood-opacity="0" result="BackgroundImageFix"/><feBlend in="SourceGraphic" in2="BackgroundImageFix" result="shape"/><feColorMatrix in="SourceAlpha" result="hardAlpha" values="0 0 0 0 0 0 0 0 0 0 0 0 0 0 0 0 0 0 127 0"/><feOffset dy=".509"/><feGaussianBlur stdDeviation="1.019"/><feComposite in2="hardAlpha" k2="-1" k3="1" operator="arithmetic"/><feColorMatrix values="0 0 0 0 0 0 0 0 0 0 0 0 0 0 0 0 0 0 0.05 0"/><feBlend in2="shape" result="effect1_innerShadow_874_198"/></filter></defs></g></svg>