<svg xmlns="http://www.w3.org/2000/svg" viewBox="0 0 21 18"><g fill="none"><g clip-path="url(#nimiq-logos-crypto-map-xw19s8)"><path fill="url(#nimiq-logos-crypto-map-xw19s8)" fill-rule="evenodd" d="M14.772 16.618a.3.3 0 01-.01-.085l.331-6.594-1.002.998a.548.548 0 01-.906-.17.545.545 0 01.13-.602l1.357-1.351-1.357-1.35a.546.546 0 01.39-.927.55.55 0 01.386.153l1.11 1.106.38-7.564-4.875 1.12a.8.8 0 01-.384-.003L5.856.237l.2 7.932H7.15a.55.55 0 01.537.547.545.545 0 01-.537.546H6.083l.182 7.278a.3.3 0 01-.01.079l4.042 1.097a.83.83 0 00.433 0zM5.537 9.41l.18 7.144q0 .03.007.06l-3.698.92a.826.826 0 01-.924-.407.8.8 0 01-.096-.345l-.28-5.426a.6.6 0 00.126-.035l1.287-.524a.55.55 0 00.34-.504.544.544 0 00-.546-.548.6.6 0 00-.21.04l-1.056.431-.4-7.771a.82.82 0 01.58-.825L5.306.252l.201 7.988-1.213.495a.547.547 0 00-.29.709.547.547 0 00.706.302zm9.773 7.151.34-6.772 1.155 1.15a.547.547 0 00.782.006.545.545 0 00-.007-.78l-1.356-1.35 1.356-1.351a.546.546 0 00-.597-.897.6.6 0 00-.178.124l-1.052 1.047.376-7.479 4.07 1.351a.82.82 0 01.562.82l-.74 14.352a.816.816 0 01-.66.761.8.8 0 01-.36-.008l-3.699-.921a.3.3 0 00.008-.053M9.875 8.17a.55.55 0 00-.537.546.545.545 0 00.537.546h1.361a.55.55 0 00.537-.546.545.545 0 00-.537-.547z" clip-rule="evenodd"/></g><defs><radialGradient id="nimiq-logos-crypto-map-xw19s8" cx="0" cy="0" r="1" gradientTransform="matrix(-20.4963 0 0 -17.5126 20.762 17.745)" gradientUnits="userSpaceOnUse"><stop stop-color="#EC991C"/><stop offset="1" stop-color="#E9B213"/></radialGradient><clipPath id="nimiq-logos-crypto-map-xw19s8"><path fill="#fff" d="M0 0h21v18H0z"/></clipPath></defs></g></svg>