<svg xmlns="http://www.w3.org/2000/svg" viewBox="0 0 79 17"><g fill="none"><path fill="#FC8702" d="M9.58.016h4.505a2.93 2.93 0 01-.859 2.077 2.95 2.95 0 01-2.082.864H6.64c-.004-.775.3-1.52.848-2.072a2.94 2.94 0 012.07-.87z"/><path fill="#D94432" d="M16.526 4.233c.012.025 2.245 3.874 2.245 3.874a2.95 2.95 0 01-4.024-1.056l-.015-.026-2.245-3.874a2.96 2.96 0 014.036 1.076z"/><path fill="#21BCA5" d="M4.04 9.18c.012.025 2.246 3.875 2.246 3.875a2.954 2.954 0 01-4.025-1.056l-.016-.026C2.234 11.948 0 8.099 0 8.099A2.99 2.99 0 014.04 9.18"/><path fill="#E9B213" d="M5.773 4.027 3.527 7.9a2.933 2.933 0 01-1.08-4.02C2.459 3.854 4.692.005 4.692.005a2.95 2.95 0 011.378 1.78 2.93 2.93 0 01-.29 2.23z"/><path fill="#1F2348" d="M16.33 12.329c-.012.023-2.245 3.874-2.245 3.874a2.935 2.935 0 01-1.08-4.023c.01-.025 2.244-3.874 2.244-3.874a2.93 2.93 0 011.08 4.018z"/><path fill="#0582CA" d="M7.641 13.264h4.503a2.93 2.93 0 01-.857 2.076 2.95 2.95 0 01-2.08.866H4.7c0-.778.309-1.525.86-2.076a2.96 2.96 0 012.081-.866"/><path fill="#fff" d="M28.092 11.048V5.166h2.582q.972 0 1.504.458.532.459.533 1.276c.01.325-.073.646-.239.926-.163.26-.4.465-.68.59a2 2 0 01-.276.107q.138.046.259.127c.2.14.357.334.453.559l.864 1.843H31.9l-.87-1.91a.64.64 0 00-.357-.384 1.6 1.6 0 00-.574-.092h-.922v2.386zm1.08-3.178h1.322q.571 0 .865-.238a.84.84 0 00.297-.696.83.83 0 00-.297-.692q-.298-.234-.865-.234h-1.32zm6.44 3.178v-2.47l-2.308-3.412h1.25l1.62 2.489 1.626-2.49h1.207l-2.314 3.423v2.46zm37.643 0v-2.47l-2.312-3.412h1.248l1.62 2.489 1.636-2.49h1.207l-2.312 3.42v2.46zm4.81-4.158a.92.92 0 01-.651-.262.9.9 0 01-.195-.29.97.97 0 010-.717.9.9 0 01.194-.289.9.9 0 01.292-.192.98.98 0 01.721 0q.164.067.29.192t.193.289a.97.97 0 010 .717.9.9 0 01-.483.484.9.9 0 01-.361.068m0-.132q.16 0 .308-.06a.8.8 0 00.245-.164.8.8 0 00.161-.247.84.84 0 000-.615.8.8 0 00-.16-.246.8.8 0 00-.246-.163.83.83 0 00-.615 0 .74.74 0 00-.41.409.86.86 0 000 .615.74.74 0 00.41.412.8.8 0 00.307.063zm-.39-.248V5.447h.461a.4.4 0 01.274.086.3.3 0 01.094.229.27.27 0 01-.093.221.3.3 0 01-.124.06.2.2 0 01.051.027.27.27 0 01.085.149l.095.29h-.248l-.098-.315a.12.12 0 00-.055-.074.2.2 0 00-.089-.018h-.108v.406zm.239-.588h.189a.2.2 0 00.129-.036.14.14 0 00.043-.113.13.13 0 00-.044-.107.2.2 0 00-.128-.036h-.19zm-53.249 5.209a3.16 3.16 0 01-1.579-.368 2.5 2.5 0 01-1.01-1.05 3.4 3.4 0 01-.351-1.605 3.4 3.4 0 01.352-1.601c.225-.44.576-.804 1.01-1.046a3.16 3.16 0 011.578-.371 3.4 3.4 0 011.118.175c.322.108.617.285.865.517l-.352.85a2.8 2.8 0 00-.757-.454 2.4 2.4 0 00-.834-.137q-.896 0-1.37.538-.471.538-.473 1.53 0 .993.474 1.534.473.54 1.369.538c.284.005.567-.042.834-.138.276-.112.531-.268.756-.462l.353.85a2.5 2.5 0 01-.865.517 3.2 3.2 0 01-1.118.183m15.312-.084V5.166h2.62q.972 0 1.483.467.51.466.51 1.283 0 .81-.51 1.284-.511.476-1.483.478h-1.54v2.368zm1.08-3.219h1.417q.536 0 .804-.238a.975.975 0 000-1.342q-.27-.237-.804-.238h-1.417zm6.057 3.219V6.052h-1.951v-.886h4.985v.883h-1.953v4.994zm3.494-2.941a3.54 3.54 0 01.34-1.602c.213-.436.551-.8.972-1.046a3.26 3.26 0 013.025 0c.424.246.766.61.985 1.046.242.496.361 1.042.348 1.593a3.5 3.5 0 01-.348 1.605c-.219.439-.56.805-.985 1.054a3.22 3.22 0 01-3.019 0 2.5 2.5 0 01-.972-1.054 3.5 3.5 0 01-.346-1.596m1.131 0q0 .992.432 1.55.433.56 1.273.559.82 0 1.266-.559.445-.558.444-1.55 0-1.002-.441-1.551-.441-.55-1.269-.55-.846 0-1.273.55t-.432 1.55m8.425 3.028a3.16 3.16 0 01-1.574-.368 2.5 2.5 0 01-1.01-1.05 3.45 3.45 0 01-.351-1.605 3.4 3.4 0 01.35-1.602A2.5 2.5 0 0158.59 5.46a3.16 3.16 0 011.579-.371 3.4 3.4 0 011.118.175c.322.109.617.285.865.517l-.352.85a2.8 2.8 0 00-.757-.454 2.4 2.4 0 00-.834-.137q-.896 0-1.37.538-.473.539-.474 1.53 0 .993.475 1.534.474.54 1.369.538c.284.005.567-.042.834-.138a2.7 2.7 0 00.757-.462l.352.85a2.5 2.5 0 01-.865.517 3.3 3.3 0 01-1.123.187m3.308-.087V5.166h1.08v5.877zm4.022 0V6.052h-1.953v-.886h4.985v.883h-1.951v4.994z"/></g></svg>