<svg xmlns="http://www.w3.org/2000/svg" viewBox="0 0 154 16"><g fill="none"><path fill="#1F2348" d="M64.91 11V2.99h2.532q1.319 0 2.227.467a3.05 3.05 0 011.375 1.351q.477.886.477 2.182t-.477 2.192a3.1 3.1 0 01-1.375 1.364Q68.76 11 67.442 11zm.703-.625h1.773q1.715 0 2.556-.84.84-.853.84-2.545 0-1.705-.84-2.545t-2.556-.84h-1.773zm10.035.716q-1.296 0-2.057-.773-.75-.772-.75-2.147 0-.909.33-1.568.34-.659.943-1.022.602-.375 1.397-.375.762 0 1.284.33.522.317.807.92.284.59.284 1.408v.319H73.34v-.5h4.113l-.193.147q0-.965-.443-1.51-.444-.558-1.318-.557-.932 0-1.454.647-.523.636-.523 1.693v.08q0 1.136.557 1.726.568.591 1.579.591.522 0 .977-.159.455-.16.875-.545l.284.511a2.4 2.4 0 01-.943.58 3.6 3.6 0 01-1.204.204m5.34-.091-2.42-5.692h.773l2.159 5.26h-.296l2.181-5.26h.739L81.704 11zm6.664.09q-1.296 0-2.057-.772-.75-.772-.75-2.147 0-.909.33-1.568.341-.659.943-1.022.602-.375 1.397-.375.762 0 1.284.33.522.317.807.92.284.59.284 1.408v.319h-4.544v-.5h4.112l-.193.147q0-.965-.443-1.51-.444-.558-1.318-.557-.932 0-1.454.647-.523.636-.523 1.693v.08q0 1.136.557 1.726.568.591 1.58.591.521 0 .976-.159.455-.16.875-.545l.284.511a2.4 2.4 0 01-.943.58 3.6 3.6 0 01-1.204.204m3.726-.09V2.639h.693V11zm4.834.09q-.807 0-1.397-.351a2.34 2.34 0 01-.898-1.011q-.318-.66-.318-1.58 0-.908.318-1.567.318-.66.898-1.011.591-.364 1.397-.364.795 0 1.375.364.591.351.909 1.01.33.66.329 1.568 0 .92-.33 1.58-.317.659-.908 1.01-.58.353-1.375.353m0-.59q.864 0 1.386-.602t.523-1.75-.523-1.75q-.522-.6-1.386-.601-.875 0-1.397.602-.512.602-.512 1.75 0 1.147.512 1.749.522.602 1.397.602m4.13 2.954V6.58a9 9 0 00-.023-.625 10 10 0 00-.068-.648h.682l.113 1.42h-.136q.194-.704.75-1.113t1.352-.409q.772 0 1.329.364.568.351.886 1.01.318.648.318 1.568t-.318 1.58q-.307.659-.875 1.01-.567.353-1.34.353-.785 0-1.352-.398a2 2 0 01-.75-1.113h.125v3.874zm2.579-2.954q.875 0 1.397-.602.523-.602.523-1.75 0-1.147-.523-1.75-.522-.6-1.397-.601-.864 0-1.386.602-.511.602-.511 1.75 0 1.147.511 1.749.522.602 1.386.602m6.576.59q-1.296 0-2.057-.772-.75-.772-.75-2.147 0-.909.33-1.568.34-.659.943-1.022.602-.375 1.397-.375.762 0 1.284.33.522.317.807.92.284.59.284 1.408v.319h-4.545v-.5h4.113l-.193.147q0-.965-.443-1.51-.444-.558-1.318-.557-.932 0-1.454.647-.523.636-.523 1.693v.08q0 1.136.557 1.726.567.591 1.579.591.522 0 .977-.159a2.55 2.55 0 00.875-.545l.284.511q-.364.375-.943.58a3.6 3.6 0 01-1.204.204m3.714-.09V6.638q0-.33-.023-.66a6 6 0 00-.056-.67h.681l.091 1.307-.136.011q.114-.478.409-.784.296-.317.681-.477.387-.159.796-.159.147 0 .272.023.137.011.25.045l-.022.625a1.2 1.2 0 00-.273-.057 4 4 0 00-.295-.011q-.511 0-.898.25-.375.25-.579.636a1.65 1.65 0 00-.205.784V11zm10.356.09q-1.182 0-2.011-.488a3.2 3.2 0 01-1.25-1.42q-.432-.92-.432-2.192t.432-2.182q.431-.92 1.25-1.408.83-.5 2.011-.5.862 0 1.533.273.67.261 1.17.783l-.295.568q-.556-.51-1.113-.738-.557-.24-1.295-.239-1.443 0-2.193.91-.75.897-.75 2.533t.75 2.544q.75.91 2.193.91.738 0 1.295-.228.556-.239 1.113-.75l.295.568a3.3 3.3 0 01-1.181.796 4.2 4.2 0 01-1.522.26m6.321 0q-1.295 0-2.056-.772-.75-.772-.75-2.147 0-.909.329-1.568.342-.659.943-1.022.603-.375 1.398-.375.76 0 1.283.33.523.317.807.92.284.59.284 1.408v.319h-4.544v-.5h4.112l-.193.147q0-.965-.443-1.51-.442-.558-1.318-.557-.931 0-1.454.647-.522.636-.522 1.693v.08q0 1.136.556 1.726.568.591 1.579.591.523 0 .977-.159a2.5 2.5 0 00.875-.545l.284.511q-.363.375-.943.58a3.6 3.6 0 01-1.204.204m3.726-.09V6.58a9 9 0 00-.023-.624 10 10 0 00-.068-.648h.682l.102 1.307h-.136q.25-.682.806-1.045.557-.364 1.295-.364 1.011 0 1.523.534.522.534.522 1.67V11h-.693V7.467q0-.875-.352-1.261-.352-.398-1.091-.398-.862 0-1.374.523-.5.523-.5 1.408V11zm8.408.09q-.76 0-1.17-.453-.397-.455-.397-1.398V5.865h-1.137v-.557h1.137v-1.59l.693-.227v1.817h1.681v.557h-1.681v3.272q0 .716.227 1.034t.727.318q.227 0 .397-.046a2 2 0 00.307-.102v.614a1.6 1.6 0 01-.352.09q-.216.045-.432.046m4.374 0q-1.294 0-2.056-.772-.75-.772-.75-2.147 0-.909.33-1.568.34-.659.943-1.022.602-.375 1.397-.375.762 0 1.284.33.522.317.807.92.284.59.284 1.408v.319h-4.545v-.5h4.113l-.193.147q0-.965-.443-1.51-.444-.558-1.318-.557-.932 0-1.454.647-.523.636-.523 1.693v.08q0 1.136.557 1.726.567.591 1.579.591.522 0 .977-.159a2.55 2.55 0 00.875-.545l.284.511q-.364.375-.943.58a3.6 3.6 0 01-1.205.204m3.715-.09V6.638q0-.33-.023-.66a6 6 0 00-.056-.67h.681l.091 1.307-.136.011a1.65 1.65 0 01.409-.784q.296-.317.681-.477.387-.159.796-.159.147 0 .272.023.136.011.25.045l-.023.625a1.2 1.2 0 00-.272-.057 4 4 0 00-.296-.011q-.51 0-.897.25-.375.25-.579.636a1.65 1.65 0 00-.205.784V11zM26.275 3.299h1.376v8.027h-1.06l-4.326-5.598v5.598h-1.372V3.299h1.055l4.327 5.598zm4.115 8.027V3.299h1.478v8.027zm10.87-8.027h1.16v8.027h-1.266V6.362l-2.163 4.964h-.95l-2.163-4.964v4.964h-1.266V3.299h1.16l2.744 6.284zm3.905 8.027V3.299h1.477v8.027zM56.51 9.497a3.34 3.34 0 01-1.692 1.603c.07.16.397.608.644.866s.506.52.836.786l-1.003.792a6 6 0 01-1.017-.925 6.7 6.7 0 01-.86-1.198c-.06.004-.231.01-.339.01-.817 0-1.498-.166-2.087-.498a3.3 3.3 0 01-1.349-1.436c-.285-.569-.468-1.327-.468-2.185 0-.857.158-1.559.472-2.184a3.34 3.34 0 011.355-1.436c.59-.334 1.277-.499 2.077-.499s1.499.167 2.087.499a3.3 3.3 0 011.35 1.436c.312.625.468 1.327.468 2.184s-.188 1.618-.473 2.185m-5.218.006q.639.767 1.787.767 1.15 0 1.788-.767c.426-.513.64-1.236.64-2.19 0-.95-.214-1.688-.64-2.195q-.64-.762-1.788-.763-1.15 0-1.788.756c-.426.505-.639 1.247-.639 2.201 0 .955.213 1.678.64 2.19"/><path fill="url(#nimiq-logos-developer-center-horizontal-yc4pb3)" d="M15.026 6.67 11.86 1.178a1.27 1.27 0 00-1.098-.634H4.431c-.452 0-.87.241-1.096.634L.17 6.67a1.27 1.27 0 000 1.268l3.166 5.492c.226.393.644.634 1.096.634h6.331c.452 0 .87-.24 1.096-.634l3.166-5.492c.228-.393.228-.875.002-1.268"/><path stroke="url(#nimiq-logos-developer-center-horizontal-yc4pb3)" stroke-linecap="round" stroke-linejoin="round" stroke-width="1.284" d="m10.383 5.224 1.022 1.029c.43.432.645.648.645.917 0 .268-.215.485-.645.917l-1.022 1.028m-5.56-3.89L3.801 6.252c-.43.432-.645.648-.645.917 0 .268.215.485.645.917l1.022 1.028m3.54-4.784-.76 2.838-.76 2.838"/><defs><radialGradient id="nimiq-logos-developer-center-horizontal-yc4pb3" cx="0" cy="0" r="1" gradientTransform="matrix(15.2 0 0 15.2132 11.43 13.888)" gradientUnits="userSpaceOnUse"><stop stop-color="#EC991C"/><stop offset="1" stop-color="#E9B213"/></radialGradient><linearGradient id="nimiq-logos-developer-center-horizontal-yc4pb3" x1="12.05" x2="3.981" y1="4.054" y2="11.436" gradientUnits="userSpaceOnUse"><stop offset=".19" stop-color="#fff"/><stop offset=".61" stop-color="#fff" stop-opacity=".86"/><stop offset="1" stop-color="#fff" stop-opacity=".6"/></linearGradient></defs></g></svg>